<?xml version="1.0" standalone="no"?>
<!DOCTYPE svg PUBLIC "-//W3C//DTD SVG 20010904//EN"
 "http://www.w3.org/TR/2001/REC-SVG-20010904/DTD/svg10.dtd">
<svg version="1.0" xmlns="http://www.w3.org/2000/svg"
 width="1234.000000pt" height="1280.000000pt" viewBox="0 0 1234.000000 1280.000000"
 preserveAspectRatio="xMidYMid meet">
<metadata>
Created by potrace 1.15, written by Peter Selinger 2001-2017
</metadata>
<g transform="translate(0.000000,1280.000000) scale(0.100000,-0.100000)"
fill="#000000" stroke="none">
<path d="M7925 12794 c-646 -42 -1207 -288 -1727 -757 -249 -225 -511 -570
-659 -869 l-42 -85 -186 63 c-267 91 -373 108 -621 101 -387 -11 -708 -93
-1060 -272 -539 -275 -954 -733 -1135 -1255 -19 -57 -37 -106 -39 -107 -2 -2
-59 6 -127 17 -357 58 -797 -14 -1144 -187 -261 -131 -465 -306 -616 -531
-117 -174 -181 -328 -226 -540 -24 -112 -27 -149 -27 -317 0 -168 3 -205 27
-319 151 -713 743 -1248 1532 -1383 155 -26 446 -24 600 4 163 30 352 83 491
138 l116 45 87 -69 c397 -315 863 -512 1376 -581 151 -20 487 -24 645 -7 374
40 702 138 1047 310 71 36 152 79 181 96 l51 30 58 -48 c203 -169 491 -310
787 -386 219 -55 342 -70 596 -70 239 1 321 10 519 61 439 114 896 417 1184
787 38 48 72 87 77 87 4 0 60 -22 123 -49 298 -128 445 -170 627 -178 369 -17
785 107 1090 324 197 141 398 362 525 578 276 469 357 1089 214 1642 -192 748
-747 1292 -1463 1436 l-119 24 -22 111 c-209 1032 -1029 1869 -2055 2096 -221
48 -493 72 -685 60z"/>
<path d="M11114 6326 c-276 -135 -619 -386 -816 -596 -140 -148 -257 -338
-320 -520 -30 -88 -32 -104 -33 -225 0 -110 3 -140 23 -197 105 -303 433 -470
687 -348 137 65 258 217 299 377 23 87 21 231 -5 334 -25 101 -94 248 -143
306 -21 24 -36 52 -36 67 0 30 -29 36 -50 11 -11 -13 -10 -22 7 -53 11 -20 28
-61 38 -91 14 -44 15 -57 5 -76 -16 -30 -7 -55 20 -55 24 0 27 -31 5 -50 -21
-17 -19 -37 5 -52 11 -7 20 -20 20 -28 0 -8 -9 -21 -20 -28 -26 -16 -25 -37 1
-56 21 -14 21 -19 11 -83 -21 -135 -51 -207 -89 -209 -34 -2 -45 -15 -41 -45
5 -33 -12 -53 -45 -54 -13 0 -27 -10 -35 -27 -13 -27 -63 -49 -145 -64 -36 -6
-38 -5 -32 18 4 17 1 29 -11 38 -14 13 -19 11 -40 -15 l-23 -29 -41 29 c-53
37 -90 81 -90 107 0 11 -11 31 -24 43 -32 30 -49 89 -34 121 9 19 8 28 -7 44
-15 16 -17 31 -12 83 8 83 15 99 39 91 10 -3 25 0 33 6 22 18 18 51 -5 57 -11
3 -20 8 -20 11 0 3 16 34 35 68 32 57 38 62 55 52 14 -9 22 -9 34 1 21 18 20
48 -1 60 -15 8 -14 13 11 51 26 40 28 41 47 25 15 -15 21 -15 34 -5 20 16 19
47 -2 58 -15 9 -14 12 5 38 11 16 34 42 51 58 25 24 31 26 31 13 0 -23 26 -33
45 -17 20 17 19 47 -2 59 -17 9 -16 11 1 30 11 12 27 21 36 21 20 0 40 19 40
40 0 16 115 135 137 141 6 2 22 19 35 38 14 21 32 35 46 36 25 2 42 20 42 45
0 9 26 39 58 67 51 45 60 49 69 34 18 -27 48 -1 46 41 -2 27 5 41 27 63 22 21
30 24 30 13 0 -9 6 -21 14 -27 11 -10 17 -7 30 11 20 28 20 48 1 48 -23 0 -18
13 16 46 36 34 63 81 50 88 -4 3 -48 -14 -97 -38z"/>
<path d="M10930 6021 c-13 -25 -3 -51 21 -51 25 0 44 37 28 56 -16 20 -36 18
-49 -5z"/>
<path d="M3133 5981 c-330 -160 -734 -471 -914 -704 -118 -153 -219 -351 -254
-501 -46 -194 6 -398 139 -543 112 -122 239 -183 380 -183 296 0 538 315 495
645 -21 161 -78 306 -161 407 -22 27 -38 57 -38 72 0 19 -5 26 -20 26 -30 0
-41 -29 -23 -64 8 -16 26 -57 39 -91 20 -56 21 -65 8 -76 -22 -18 -14 -53 14
-57 26 -4 30 -33 7 -52 -20 -17 -19 -27 5 -47 21 -18 27 -53 10 -53 -5 0 -15
-10 -21 -22 -10 -18 -8 -24 10 -39 27 -22 27 -62 2 -156 -23 -89 -50 -138 -78
-139 -34 -2 -45 -14 -40 -43 8 -36 -7 -56 -40 -56 -20 0 -31 -7 -40 -27 -14
-27 -64 -49 -146 -64 -36 -6 -38 -5 -32 18 8 32 -18 57 -40 38 -8 -7 -15 -21
-15 -31 0 -18 -2 -18 -29 -5 -49 26 -121 103 -121 130 0 15 -8 30 -19 35 -28
16 -53 96 -39 126 9 20 8 28 -5 43 -20 22 -22 74 -6 138 10 37 15 44 31 38 10
-3 25 0 33 6 22 18 18 51 -5 57 -11 3 -20 7 -20 9 0 2 16 33 36 68 31 58 37
64 54 54 14 -9 22 -9 34 1 21 18 20 48 -1 60 -15 8 -14 13 11 51 26 40 28 41
47 25 15 -15 21 -15 34 -5 20 16 20 60 0 60 -24 0 -18 13 35 71 34 38 49 49
50 36 0 -23 26 -33 45 -17 19 16 19 49 0 56 -12 5 -12 9 2 30 8 13 23 24 32
24 21 0 41 19 41 40 0 16 115 135 137 141 6 2 22 20 35 39 13 19 30 35 38 36
35 2 40 5 47 32 4 15 33 50 63 78 47 44 57 50 68 38 10 -11 18 -12 34 -3 16 9
19 17 14 41 -5 25 -1 35 24 58 17 15 30 22 30 15 0 -7 6 -18 14 -24 11 -10 17
-7 30 11 20 28 20 48 1 48 -23 0 -18 13 16 46 36 34 63 81 50 88 -4 3 -44 -12
-88 -33z"/>
<path d="M10890 5875 c-7 -9 -11 -18 -8 -20 3 -3 11 1 18 10 7 9 11 18 8 20
-3 3 -11 -1 -18 -10z"/>
<path d="M10790 5825 c-16 -19 -9 -49 14 -53 35 -7 49 40 17 57 -14 8 -22 7
-31 -4z"/>
<path d="M10690 5769 c-15 -27 -6 -49 19 -49 26 0 43 30 30 53 -13 23 -36 21
-49 -4z"/>
<path d="M2940 5671 c-13 -25 -3 -51 21 -51 22 0 41 32 33 54 -8 22 -41 20
-54 -3z"/>
<path d="M5585 5656 c-162 -77 -402 -234 -579 -376 -306 -247 -498 -509 -580
-794 -65 -224 -11 -441 149 -601 181 -181 405 -214 601 -87 109 71 202 204
239 342 19 71 19 219 0 308 -28 134 -98 284 -159 341 -16 15 -26 35 -26 52 0
31 -11 42 -34 33 -25 -10 -28 -39 -8 -75 11 -19 28 -56 37 -82 15 -40 16 -52
6 -71 -17 -31 -10 -61 13 -61 26 0 30 -19 11 -48 -17 -26 -11 -57 11 -57 21 0
17 -33 -6 -53 -26 -22 -26 -47 1 -54 20 -6 21 -10 15 -72 -12 -118 -58 -228
-93 -223 -27 4 -47 -22 -39 -52 7 -27 -15 -52 -39 -43 -16 7 -45 -17 -45 -38
0 -16 -69 -44 -133 -55 -47 -7 -48 -6 -43 15 7 26 -16 50 -39 41 -8 -3 -15
-15 -15 -26 0 -28 -26 -25 -54 5 -13 14 -28 25 -34 25 -17 0 -62 64 -62 88 0
12 -9 26 -19 32 -27 14 -57 106 -41 125 12 15 5 55 -11 55 -13 0 -11 82 2 136
11 43 22 54 34 34 11 -18 45 9 45 35 0 22 -9 30 -32 26 -13 -2 -9 9 29 80 33
61 39 67 52 54 11 -9 21 -11 34 -4 21 12 22 37 2 59 -13 15 -12 21 12 58 23
35 28 38 38 25 6 -8 20 -14 31 -11 25 4 31 48 9 64 -14 11 -12 17 27 62 45 53
58 61 58 38 0 -19 21 -26 43 -14 22 11 22 44 0 57 -17 9 -16 11 6 35 13 14 27
23 32 21 10 -7 39 23 39 38 0 13 136 152 148 152 4 0 16 13 27 30 12 16 31 31
44 33 15 2 28 15 36 37 19 43 114 130 129 115 28 -28 65 5 52 48 -4 12 4 28
23 46 27 26 29 26 34 7 7 -29 31 -26 48 5 12 24 12 28 -2 37 -14 9 -11 17 27
64 39 48 48 73 26 73 -4 0 -39 -15 -77 -34z"/>
<path d="M10618 5669 c-19 -10 -25 -54 -9 -63 15 -10 40 4 47 26 8 28 -15 50
-38 37z"/>
<path d="M10717 5659 c-20 -11 -23 -55 -4 -62 19 -7 47 12 47 32 0 27 -21 42
-43 30z"/>
<path d="M1185 5606 c-154 -74 -397 -231 -565 -365 -209 -166 -355 -326 -457
-498 -175 -298 -206 -539 -98 -756 106 -211 339 -346 535 -309 182 33 330 168
401 363 52 142 48 283 -12 463 -30 90 -99 215 -138 250 -12 11 -21 32 -21 48
0 22 -4 29 -16 26 -38 -7 -38 -32 0 -126 34 -84 36 -94 22 -108 -9 -8 -16 -21
-16 -28 0 -18 21 -35 36 -29 16 6 20 -32 4 -42 -15 -10 -12 -55 5 -61 19 -8
19 -38 0 -54 -8 -7 -15 -23 -15 -36 0 -15 6 -24 15 -24 11 0 15 -12 15 -47 -1
-106 -57 -251 -94 -245 -28 5 -48 -18 -41 -48 6 -29 -16 -57 -35 -45 -13 8
-52 -24 -44 -37 8 -12 -72 -45 -131 -53 -51 -6 -51 -6 -50 22 0 21 -5 28 -20
28 -11 0 -24 -10 -30 -22 -5 -13 -13 -23 -17 -23 -13 0 -128 101 -129 113 -1
7 -2 17 -4 22 -1 6 -3 16 -3 23 -1 6 -8 12 -16 12 -8 0 -23 22 -34 52 -15 41
-17 57 -8 80 9 25 8 32 -7 42 -20 15 -22 67 -4 136 11 40 15 44 42 45 24 0 31
5 33 24 2 15 -3 30 -12 37 -15 11 -14 18 15 77 28 56 35 64 49 54 10 -5 25 -7
34 -4 20 8 21 53 1 64 -12 7 -10 16 15 53 23 35 30 41 36 27 9 -24 41 -21 55
5 10 18 8 24 -10 39 l-21 17 46 51 c45 50 47 51 61 31 11 -16 18 -18 34 -10
23 13 25 55 3 64 -15 6 -14 9 6 31 12 13 32 25 44 27 12 2 22 12 24 23 4 23
130 155 145 152 5 -1 17 11 26 27 15 27 26 35 71 56 8 4 16 17 18 28 2 12 29
43 60 70 45 39 60 47 73 39 9 -6 24 -7 34 -3 14 5 16 14 12 40 -4 28 -1 38 22
60 33 31 41 32 41 6 0 -27 24 -25 42 3 17 25 13 47 -9 47 -9 0 3 20 31 52 75
86 61 98 -49 44z"/>
<path d="M10575 5539 c-10 -30 18 -57 39 -39 9 7 16 23 16 36 0 32 -45 34 -55
3z"/>
<path d="M2900 5525 c-7 -9 -11 -18 -8 -20 3 -3 11 1 18 10 7 9 11 18 8 20 -3
3 -11 -1 -18 -10z"/>
<path d="M10486 5494 c-24 -23 -16 -49 14 -49 21 0 25 5 25 29 0 35 -16 43
-39 20z"/>
<path d="M2802 5478 c-17 -17 -15 -48 3 -54 18 -7 45 12 45 32 0 20 -34 36
-48 22z"/>
<path d="M10637 5474 c-10 -11 -9 -52 3 -59 18 -11 51 15 48 38 -3 22 -36 35
-51 21z"/>
<path d="M2700 5421 c-13 -25 -3 -51 21 -51 25 0 44 37 28 56 -16 20 -36 18
-49 -5z"/>
<path d="M10401 5371 c-13 -24 8 -55 31 -46 19 8 33 40 23 55 -10 17 -44 11
-54 -9z"/>
<path d="M8277 5336 c-377 -199 -753 -499 -920 -733 -76 -107 -158 -264 -199
-383 -29 -86 -32 -106 -33 -215 0 -100 4 -132 24 -193 83 -253 345 -433 572
-392 150 27 293 141 366 290 53 109 68 173 66 285 -1 162 -76 375 -168 483
-21 23 -35 51 -35 66 0 19 -5 26 -20 26 -29 0 -44 -35 -26 -62 8 -13 26 -53
40 -90 22 -58 23 -68 10 -79 -22 -18 -14 -53 14 -57 26 -4 28 -23 6 -57 -14
-22 -14 -25 5 -44 22 -22 28 -51 11 -51 -5 0 -14 -9 -20 -20 -8 -16 -6 -24 11
-41 19 -19 21 -29 15 -82 -11 -106 -60 -225 -91 -219 -26 5 -47 -18 -40 -46 8
-32 -11 -53 -40 -46 -19 5 -27 0 -39 -24 -17 -33 -65 -56 -138 -67 -47 -7 -47
-7 -45 21 2 25 -2 29 -23 29 -18 0 -26 -6 -28 -22 -2 -13 -7 -23 -12 -23 -13
0 -119 89 -130 110 -5 10 -10 27 -10 37 0 10 -8 23 -19 30 -24 15 -55 103 -41
117 15 15 12 46 -5 52 -18 7 -20 61 -4 134 9 44 14 50 30 45 11 -4 26 -1 34 5
22 18 18 51 -5 57 -19 5 -18 9 17 75 25 48 39 66 47 58 19 -19 45 -11 52 17 5
19 2 30 -10 39 -16 11 -15 15 10 54 25 37 29 40 40 25 18 -24 54 -11 54 20 0
13 -8 28 -17 33 -14 9 -10 17 32 67 45 52 50 55 57 35 12 -32 52 -23 56 13 2
18 -2 29 -13 33 -14 6 -14 8 2 26 10 11 28 24 41 29 12 5 27 20 32 35 14 35
119 144 140 144 9 0 23 15 31 33 10 23 21 33 42 35 21 3 32 12 42 35 8 18 36
54 63 80 44 44 52 47 70 36 29 -18 56 5 48 42 -4 20 2 33 22 52 27 26 28 26
40 6 13 -20 14 -20 33 -3 23 21 25 54 3 54 -10 0 0 18 30 56 26 31 46 60 46
65 0 19 -43 7 -123 -35z"/>
<path d="M10571 5366 c-15 -18 -5 -56 13 -56 19 0 38 26 34 47 -4 23 -31 28
-47 9z"/>
<path d="M10687 5374 c-13 -13 -7 -52 8 -58 18 -7 47 21 43 43 -3 17 -39 27
-51 15z"/>
<path d="M5389 5339 c-8 -17 -8 -24 3 -36 26 -25 65 7 52 42 -9 22 -42 18 -55
-6z"/>
<path d="M10492 5338 c-16 -16 -15 -55 2 -61 22 -9 53 30 40 50 -14 22 -27 26
-42 11z"/>
<path d="M2622 5318 c-17 -17 -15 -55 3 -62 16 -6 45 18 45 38 0 12 -19 36
-30 36 -3 0 -11 -5 -18 -12z"/>
<path d="M2725 5304 c-18 -18 -19 -36 -3 -52 17 -17 48 4 48 32 0 30 -24 40
-45 20z"/>
<path d="M997 5304 c-10 -11 -9 -52 3 -59 18 -11 51 15 48 38 -3 22 -36 35
-51 21z"/>
<path d="M10621 5266 c-20 -24 -9 -51 19 -51 21 0 25 5 25 30 0 34 -24 45 -44
21z"/>
<path d="M10371 5256 c-20 -24 -9 -51 19 -51 21 0 25 5 25 30 0 34 -24 45 -44
21z"/>
<path d="M10505 5234 c-19 -19 -19 -38 0 -54 20 -16 45 3 45 35 0 29 -25 39
-45 19z"/>
<path d="M10252 5218 c-18 -18 -15 -36 8 -43 27 -9 40 1 40 31 0 26 -27 33
-48 12z"/>
<path d="M2595 5204 c-19 -19 -19 -38 0 -54 20 -16 45 3 45 35 0 29 -25 39
-45 19z"/>
<path d="M5346 5194 c-10 -25 1 -29 14 -5 6 12 7 21 1 21 -5 0 -12 -7 -15 -16z"/>
<path d="M10692 5188 c-7 -7 -12 -22 -12 -35 0 -18 6 -23 24 -23 29 0 44 33
26 55 -15 18 -22 19 -38 3z"/>
<path d="M957 5152 c-19 -20 -23 -37 -7 -27 10 6 33 45 27 45 -2 0 -11 -8 -20
-18z"/>
<path d="M10408 5146 c-13 -30 -11 -35 23 -38 21 -3 24 1 24 27 0 40 -30 47
-47 11z"/>
<path d="M2495 5144 c-20 -21 -16 -48 9 -52 27 -6 48 25 35 49 -12 23 -23 24
-44 3z"/>
<path d="M5245 5141 c-7 -23 3 -51 19 -51 32 0 49 53 20 64 -25 10 -32 7 -39
-13z"/>
<path d="M2657 5129 c-20 -11 -23 -55 -4 -62 19 -7 47 12 47 32 0 27 -21 42
-43 30z"/>
<path d="M10574 5105 c-8 -34 9 -54 34 -39 26 17 22 58 -5 62 -17 3 -24 -3
-29 -23z"/>
<path d="M852 5098 c-16 -16 -15 -33 4 -49 14 -11 19 -10 35 10 15 18 17 27 8
37 -14 17 -31 18 -47 2z"/>
<path d="M5152 5098 c-16 -16 -15 -33 2 -47 22 -18 46 -2 46 30 0 31 -25 40
-48 17z"/>
<path d="M10293 5103 c-18 -7 -16 -52 2 -59 21 -9 47 15 43 40 -3 21 -22 29
-45 19z"/>
<path d="M10482 5068 c-17 -17 -15 -48 3 -54 18 -7 45 12 45 32 0 20 -34 36
-48 22z"/>
<path d="M10660 5059 c-9 -15 -8 -24 1 -35 24 -29 49 -10 49 37 0 26 -36 25
-50 -2z"/>
<path d="M768 5059 c-19 -10 -25 -54 -9 -63 15 -10 40 4 47 26 8 28 -15 50
-38 37z"/>
<path d="M8117 5039 c-18 -25 -12 -49 13 -49 26 0 46 28 34 48 -16 25 -31 25
-47 1z"/>
<path d="M2414 5026 c-8 -20 -1 -49 12 -53 17 -6 46 26 42 46 -4 21 -46 27
-54 7z"/>
<path d="M2707 5029 c-20 -11 -23 -55 -4 -62 19 -7 47 12 47 32 0 27 -21 42
-43 30z"/>
<path d="M2582 5018 c-16 -16 -15 -33 3 -48 20 -17 45 3 45 36 0 26 -27 33
-48 12z"/>
<path d="M10155 5009 c-10 -30 18 -57 39 -39 9 7 16 23 16 36 0 32 -45 34 -55
3z"/>
<path d="M10381 5016 c-20 -24 -9 -51 19 -51 21 0 25 5 25 30 0 34 -24 45 -44
21z"/>
<path d="M2502 4988 c-7 -7 -12 -22 -12 -35 0 -18 6 -23 24 -23 29 0 44 33 26
55 -15 18 -22 19 -38 3z"/>
<path d="M5072 4988 c-19 -19 -15 -58 7 -58 26 0 44 25 36 50 -7 22 -25 26
-43 8z"/>
<path d="M10742 4988 c-7 -7 -12 -22 -12 -35 0 -18 6 -23 24 -23 29 0 44 33
26 55 -15 18 -22 19 -38 3z"/>
<path d="M5170 4975 c-17 -21 -8 -50 17 -53 17 -3 24 3 29 22 10 42 -19 63
-46 31z"/>
<path d="M10239 4969 c-8 -17 -8 -24 3 -36 26 -25 65 7 52 42 -9 22 -42 18
-55 -6z"/>
<path d="M10494 4956 c-8 -20 -1 -49 12 -53 17 -6 46 26 42 46 -4 21 -46 27
-54 7z"/>
<path d="M10617 4959 c-21 -12 -23 -55 -2 -63 16 -6 45 18 45 38 0 22 -23 36
-43 25z"/>
<path d="M672 4938 c-17 -17 -15 -47 3 -54 21 -9 47 15 43 40 -4 24 -28 32
-46 14z"/>
<path d="M770 4921 c-5 -11 -7 -27 -4 -35 9 -24 43 -19 53 7 16 41 -28 66 -49
28z"/>
<path d="M2630 4911 c-13 -25 -3 -51 21 -51 24 0 40 30 28 53 -13 23 -36 22
-49 -2z"/>
<path d="M2381 4906 c-20 -24 -9 -51 19 -51 21 0 25 5 25 30 0 34 -24 45 -44
21z"/>
<path d="M10297 4899 c-28 -39 7 -73 39 -38 14 15 16 24 8 36 -16 26 -31 26
-47 2z"/>
<path d="M8070 4895 c-6 -8 -10 -19 -8 -24 1 -5 11 2 21 15 19 26 8 34 -13 9z"/>
<path d="M10407 4899 c-21 -12 -23 -55 -2 -63 16 -6 45 18 45 38 0 22 -23 36
-43 25z"/>
<path d="M2515 4884 c-21 -22 -15 -48 12 -52 30 -4 49 31 27 52 -19 20 -19 20
-39 0z"/>
<path d="M5041 4876 c-20 -24 -9 -51 19 -51 21 0 25 5 25 30 0 34 -24 45 -44
21z"/>
<path d="M2262 4868 c-24 -24 -7 -48 33 -48 14 0 24 28 18 48 -6 15 -35 16
-51 0z"/>
<path d="M10692 4868 c-28 -28 -3 -75 30 -57 22 12 24 55 2 63 -20 8 -18 8
-32 -6z"/>
<path d="M10184 4856 c-9 -24 0 -51 18 -54 19 -4 42 33 34 54 -7 18 -45 18
-52 0z"/>
<path d="M10522 4848 c-19 -19 -15 -58 7 -58 27 0 47 28 35 48 -14 21 -27 25
-42 10z"/>
<path d="M2702 4838 c-15 -15 -15 -41 0 -56 15 -15 48 3 48 26 0 17 -18 42
-30 42 -3 0 -11 -5 -18 -12z"/>
<path d="M7965 4830 c-8 -26 6 -43 31 -38 13 2 19 12 19 28 0 34 -40 41 -50
10z"/>
<path d="M640 4819 c-13 -23 1 -49 26 -49 21 0 38 38 23 56 -16 20 -36 17 -49
-7z"/>
<path d="M4941 4816 c-20 -24 -9 -51 19 -51 21 0 25 5 25 30 0 34 -24 45 -44
21z"/>
<path d="M2419 4799 c-10 -19 -9 -25 7 -36 26 -19 39 -11 39 23 0 36 -29 45
-46 13z"/>
<path d="M5100 4795 c-17 -20 -8 -49 16 -53 24 -3 38 20 29 49 -8 23 -28 25
-45 4z"/>
<path d="M7876 4794 c-10 -9 -15 -23 -12 -31 3 -8 6 -17 6 -19 0 -2 8 -4 19
-4 27 0 47 28 35 48 -15 23 -29 25 -48 6z"/>
<path d="M10277 4799 c-20 -11 -22 -40 -5 -57 15 -15 48 3 48 27 0 27 -21 42
-43 30z"/>
<path d="M10415 4784 c-18 -18 -19 -36 -3 -52 17 -17 48 4 48 32 0 30 -24 40
-45 20z"/>
<path d="M544 4766 c-9 -24 0 -51 18 -54 20 -4 40 30 32 52 -8 20 -43 21 -50
2z"/>
<path d="M2584 4755 c-8 -34 9 -54 34 -39 26 17 22 58 -5 62 -17 3 -24 -3 -29
-23z"/>
<path d="M10591 4758 c-15 -40 4 -60 37 -39 19 12 11 55 -11 59 -11 2 -20 -5
-26 -20z"/>
<path d="M701 4746 c-20 -24 -9 -51 19 -51 21 0 25 5 25 30 0 34 -24 45 -44
21z"/>
<path d="M2294 4735 c-8 -34 9 -54 34 -39 26 17 22 58 -5 62 -17 3 -24 -3 -29
-23z"/>
<path d="M2484 4705 c-8 -34 9 -54 34 -39 19 12 29 54 14 54 -6 0 -17 3 -26 6
-11 4 -17 -2 -22 -21z"/>
<path d="M2674 4716 c-9 -23 0 -50 16 -54 15 -3 43 51 32 62 -11 12 -43 6 -48
-8z"/>
<path d="M10332 4718 c-17 -17 -15 -55 3 -62 16 -6 45 18 45 38 0 12 -19 36
-30 36 -3 0 -11 -5 -18 -12z"/>
<path d="M4872 4708 c-19 -19 -15 -58 7 -58 27 0 47 28 35 48 -14 21 -27 25
-42 10z"/>
<path d="M10497 4709 c-20 -11 -23 -55 -4 -62 19 -7 47 12 47 32 0 27 -21 42
-43 30z"/>
<path d="M5035 4694 c-18 -18 -19 -36 -3 -52 17 -17 48 4 48 32 0 30 -24 40
-45 20z"/>
<path d="M5152 4698 c-17 -17 -15 -47 4 -55 23 -9 51 23 38 44 -14 22 -27 26
-42 11z"/>
<path d="M2175 4674 c-19 -19 -19 -38 0 -54 20 -16 45 3 45 35 0 29 -25 39
-45 19z"/>
<path d="M7787 4684 c-13 -13 -7 -55 8 -60 21 -9 47 15 43 40 -3 21 -37 34
-51 20z"/>
<path d="M2391 4666 c-14 -17 -6 -56 12 -56 24 0 39 18 35 41 -4 28 -30 36
-47 15z"/>
<path d="M7892 4668 c-17 -17 -15 -47 3 -54 21 -9 47 15 43 40 -4 24 -28 32
-46 14z"/>
<path d="M470 4655 c-17 -21 -8 -50 17 -53 17 -3 24 3 29 22 10 42 -19 63 -46
31z"/>
<path d="M4944 4656 c-9 -24 0 -51 18 -54 20 -4 40 30 32 52 -8 20 -43 21 -50
2z"/>
<path d="M642 4648 c-19 -19 -15 -58 7 -58 27 0 47 28 35 48 -14 21 -27 25
-42 10z"/>
<path d="M752 4648 c-17 -17 -15 -47 3 -54 21 -9 47 15 43 40 -4 24 -28 32
-46 14z"/>
<path d="M2752 4638 c-16 -16 -15 -43 2 -57 11 -9 18 -8 30 4 20 21 21 51 0
59 -20 8 -18 8 -32 -6z"/>
<path d="M2251 4621 c-13 -24 8 -55 31 -46 19 8 33 40 23 55 -10 17 -44 11
-54 -9z"/>
<path d="M2512 4618 c-17 -17 -15 -55 3 -62 16 -6 45 18 45 38 0 12 -19 36
-30 36 -3 0 -11 -5 -18 -12z"/>
<path d="M552 4608 c-17 -17 -15 -47 3 -54 21 -9 47 15 43 40 -4 24 -28 32
-46 14z"/>
<path d="M2627 4609 c-20 -11 -23 -55 -4 -62 19 -7 47 12 47 32 0 27 -21 42
-43 30z"/>
<path d="M5082 4588 c-16 -16 -15 -33 3 -48 20 -17 45 3 45 36 0 26 -27 33
-48 12z"/>
<path d="M4824 4565 c-8 -34 9 -54 34 -39 26 17 22 58 -5 62 -17 3 -24 -3 -29
-23z"/>
<path d="M7760 4565 c-12 -15 -5 -55 10 -55 26 0 40 15 40 41 0 22 -5 29 -19
29 -10 0 -24 -7 -31 -15z"/>
<path d="M2312 4558 c-19 -19 -15 -58 7 -58 27 0 47 28 35 48 -14 21 -27 25
-42 10z"/>
<path d="M4960 4550 c-16 -29 -5 -52 22 -48 18 2 23 9 23 33 0 37 -28 46 -45
15z"/>
<path d="M686 4539 c-25 -37 8 -74 39 -43 18 19 19 36 3 52 -17 17 -25 15 -42
-9z"/>
<path d="M2412 4548 c-17 -17 -15 -55 3 -62 16 -6 45 18 45 38 0 12 -19 36
-30 36 -3 0 -11 -5 -18 -12z"/>
<path d="M4716 4545 c-21 -22 -20 -32 5 -46 26 -14 42 0 37 32 -4 29 -21 34
-42 14z"/>
<path d="M432 4528 c-16 -16 -15 -33 4 -48 13 -11 18 -10 35 6 12 13 17 27 13
37 -7 20 -35 22 -52 5z"/>
<path d="M2701 4516 c-20 -24 -9 -51 19 -51 21 0 25 5 25 30 0 34 -24 45 -44
21z"/>
<path d="M567 4513 c-13 -12 -7 -54 9 -60 23 -8 47 20 39 46 -6 20 -34 28 -48
14z"/>
<path d="M2197 4514 c-13 -13 -7 -55 8 -60 21 -9 47 15 43 40 -3 21 -37 34
-51 20z"/>
<path d="M5152 4508 c-17 -17 -15 -47 3 -54 21 -9 47 15 43 40 -4 24 -28 32
-46 14z"/>
<path d="M7662 4508 c-16 -16 -15 -33 4 -49 14 -11 19 -10 35 9 10 13 15 30
12 37 -6 18 -35 19 -51 3z"/>
<path d="M322 4498 c-17 -17 -15 -45 5 -52 24 -10 51 20 37 41 -14 22 -27 26
-42 11z"/>
<path d="M2532 4498 c-7 -7 -12 -22 -12 -35 0 -18 6 -23 24 -23 29 0 44 33 26
55 -15 18 -22 19 -38 3z"/>
<path d="M7822 4488 c-17 -17 -15 -47 3 -54 21 -9 47 15 43 40 -4 24 -28 32
-46 14z"/>
<path d="M4870 4476 c-18 -22 -5 -46 25 -46 23 0 26 4 23 27 -3 32 -29 41 -48
19z"/>
<path d="M751 4456 c-15 -18 -5 -56 13 -56 19 0 38 26 34 47 -4 23 -31 28 -47
9z"/>
<path d="M2287 4448 c-20 -10 -22 -39 -5 -56 17 -17 48 4 48 32 0 28 -19 38
-43 24z"/>
<path d="M2425 4434 c-19 -19 -19 -38 0 -54 20 -16 45 3 45 35 0 29 -25 39
-45 19z"/>
<path d="M5037 4444 c-12 -13 -8 -52 7 -57 21 -8 49 16 44 39 -3 19 -38 31
-51 18z"/>
<path d="M474 4425 c-9 -23 3 -45 25 -45 20 0 37 32 26 50 -9 15 -45 12 -51
-5z"/>
<path d="M2601 4408 c-6 -15 -5 -27 3 -36 24 -25 61 10 49 46 -8 20 -43 14
-52 -10z"/>
<path d="M4744 4416 c-9 -24 0 -51 18 -54 19 -4 42 33 34 54 -7 18 -45 18 -52
0z"/>
<path d="M645 4394 c-18 -18 -19 -36 -3 -52 17 -17 48 4 48 32 0 30 -24 40
-45 20z"/>
<path d="M7587 4404 c-13 -13 -7 -55 8 -60 21 -9 47 15 43 40 -3 21 -37 34
-51 20z"/>
<path d="M4937 4393 c-13 -12 -7 -54 8 -59 19 -8 45 13 45 36 0 23 -37 39 -53
23z"/>
<path d="M5121 4381 c-7 -13 -6 -23 4 -37 15 -19 15 -19 30 0 8 11 15 28 15
38 0 24 -36 24 -49 -1z"/>
<path d="M7750 4381 c-13 -25 -3 -51 21 -51 24 0 40 30 28 53 -13 23 -36 22
-49 -2z"/>
<path d="M7867 4394 c-13 -13 -7 -55 8 -60 21 -9 47 15 43 40 -3 21 -37 34
-51 20z"/>
<path d="M11605 4376 c-138 -64 -430 -253 -582 -375 -316 -254 -481 -473 -580
-769 -30 -91 -36 -121 -37 -202 -1 -178 52 -310 173 -430 223 -221 494 -224
702 -7 58 60 121 181 145 277 45 180 -30 480 -157 624 -25 28 -39 54 -39 71 0
19 -4 26 -16 23 -35 -7 -38 -32 -12 -89 45 -97 51 -125 33 -152 -15 -23 -14
-26 0 -41 9 -9 20 -14 25 -11 14 9 18 -34 4 -46 -20 -17 -17 -47 6 -59 11 -6
20 -16 20 -23 0 -7 -9 -18 -20 -25 -26 -16 -26 -48 0 -62 18 -10 20 -17 14
-63 -10 -78 -31 -153 -54 -195 -17 -29 -27 -38 -48 -37 -24 0 -27 -4 -27 -35
0 -46 -11 -61 -43 -58 -20 2 -29 -3 -39 -23 -15 -30 -65 -54 -135 -64 -46 -7
-47 -6 -50 21 -4 35 -35 40 -52 9 -6 -11 -12 -22 -13 -24 -4 -7 -54 30 -94 70
-24 24 -39 48 -39 64 0 14 -8 29 -19 35 -11 5 -27 30 -37 55 -14 37 -15 50 -5
72 10 21 9 29 -4 43 -18 19 -21 111 -5 156 8 23 17 30 36 29 15 0 31 8 38 18
9 15 7 22 -12 37 l-24 20 37 66 c24 43 40 62 45 54 10 -16 40 -9 54 13 9 15 7
22 -10 35 l-21 17 30 44 c25 36 31 41 39 27 11 -20 32 -21 48 -1 14 17 5 52
-15 57 -9 2 1 20 31 56 46 53 64 63 64 38 0 -22 27 -26 44 -7 20 22 20 35 1
51 -14 12 -13 16 6 37 13 12 29 23 36 23 7 0 18 12 24 28 12 32 127 152 146
152 8 0 17 10 22 23 11 29 30 44 61 49 17 2 26 11 30 28 6 30 121 141 127 123
6 -18 38 -16 54 3 10 12 10 20 1 35 -11 16 -8 23 20 48 31 28 33 28 40 10 10
-26 24 -24 45 7 16 25 16 27 -2 40 -17 13 -16 16 23 58 42 45 54 76 30 76 -7
0 -35 -11 -63 -24z"/>
<path d="M357 4378 c-20 -10 -22 -39 -5 -56 17 -17 48 4 48 32 0 28 -19 38
-43 24z"/>
<path d="M2342 4368 c-7 -7 -12 -22 -12 -35 0 -18 6 -23 24 -23 29 0 44 33 26
55 -15 18 -22 19 -38 3z"/>
<path d="M2502 4358 c-28 -28 -3 -75 30 -57 22 12 24 55 2 63 -20 8 -18 8 -32
-6z"/>
<path d="M732 4348 c-17 -17 -15 -55 2 -61 25 -10 56 50 34 65 -17 10 -22 10
-36 -4z"/>
<path d="M4621 4346 c-20 -24 -9 -51 19 -51 21 0 25 5 25 30 0 34 -24 45 -44
21z"/>
<path d="M7667 4354 c-13 -13 -7 -55 8 -60 21 -9 47 15 43 40 -3 21 -37 34
-51 20z"/>
<path d="M535 4330 c-4 -12 -1 -27 5 -35 18 -21 52 -1 48 28 -4 30 -44 35 -53
7z"/>
<path d="M4835 4329 c-10 -30 18 -58 40 -39 22 18 15 54 -12 58 -15 2 -23 -3
-28 -19z"/>
<path d="M4706 4301 c-20 -22 -12 -51 15 -51 24 0 40 30 28 53 -13 22 -22 21
-43 -2z"/>
<path d="M5202 4308 c-17 -17 -15 -47 3 -54 21 -9 47 15 43 40 -4 24 -28 32
-46 14z"/>
<path d="M221 4288 c-16 -43 28 -67 49 -27 9 15 8 24 -1 35 -17 21 -38 17 -48
-8z"/>
<path d="M446 4291 c-14 -15 -15 -24 -6 -40 13 -26 22 -26 44 -2 14 15 15 24
6 40 -13 26 -22 26 -44 2z"/>
<path d="M4962 4288 c-19 -19 -15 -58 7 -58 27 0 47 28 35 48 -14 21 -27 25
-42 10z"/>
<path d="M6655 4276 c-121 -56 -383 -222 -529 -334 -336 -259 -523 -498 -628
-805 -29 -83 -32 -104 -32 -212 -1 -129 9 -175 65 -287 56 -111 196 -236 308
-273 130 -43 231 -37 350 21 150 74 262 229 299 415 13 69 14 96 4 174 -21
168 -88 336 -168 425 -21 23 -34 48 -34 64 0 23 -4 27 -22 24 -29 -4 -34 -30
-13 -74 9 -19 25 -59 35 -89 16 -47 17 -55 4 -66 -22 -18 -13 -53 14 -57 23
-3 31 -35 12 -47 -15 -10 -12 -55 5 -61 8 -4 15 -14 15 -24 0 -10 -7 -20 -15
-24 -8 -3 -15 -17 -15 -31 0 -14 7 -28 15 -31 20 -8 19 -69 0 -153 -21 -85
-52 -141 -81 -141 -29 0 -47 -24 -39 -50 9 -29 -12 -51 -40 -44 -19 5 -27 0
-39 -24 -16 -31 -68 -55 -141 -67 -40 -6 -41 -5 -40 22 0 23 -4 28 -25 28 -18
0 -26 -6 -28 -22 -3 -22 -5 -22 -33 -8 -16 9 -29 20 -29 25 0 6 -6 10 -14 10
-20 0 -77 72 -71 88 3 7 -7 24 -21 37 -28 26 -59 111 -43 120 14 9 11 41 -6
55 -18 15 -19 60 -4 130 9 42 14 50 29 45 28 -9 50 5 50 32 0 17 -7 27 -20 30
-20 5 -19 9 16 72 44 80 43 79 54 61 7 -12 13 -12 27 -4 25 15 29 45 8 60 -15
11 -14 16 11 53 25 38 28 40 44 26 9 -9 24 -13 33 -10 28 11 29 65 1 65 -21 0
-18 7 33 67 44 51 47 53 55 33 12 -32 52 -23 56 13 2 18 -2 29 -13 33 -14 6
-14 8 2 26 10 11 28 24 41 29 12 5 27 20 32 35 14 35 119 144 140 144 9 0 23
15 31 33 9 21 22 33 39 35 32 5 50 20 50 41 0 9 27 43 59 75 53 53 60 56 69
40 16 -28 47 -5 48 35 0 22 10 41 32 62 17 16 30 26 27 23 -2 -4 0 -15 6 -26
10 -19 12 -19 30 -2 23 20 25 54 4 54 -10 0 0 19 30 55 25 31 45 60 45 65 0
16 -32 11 -85 -14z"/>
<path d="M7805 4284 c-9 -9 -14 -23 -11 -31 3 -8 6 -17 6 -19 0 -2 9 -4 20 -4
25 0 41 30 29 53 -12 21 -23 22 -44 1z"/>
<path d="M5072 4278 c-17 -17 -15 -47 3 -54 21 -9 47 15 43 40 -4 24 -28 32
-46 14z"/>
<path d="M7556 4275 c-19 -20 -20 -39 -3 -54 20 -16 50 9 45 39 -4 30 -21 36
-42 15z"/>
<path d="M312 4258 c-17 -17 -15 -47 3 -54 21 -9 47 15 43 40 -4 24 -28 32
-46 14z"/>
<path d="M801 4256 c-15 -18 -5 -56 13 -56 19 0 38 26 34 47 -4 23 -31 28 -47
9z"/>
<path d="M7679 4239 c-8 -17 -8 -24 3 -36 26 -25 65 7 52 42 -9 22 -42 18 -55
-6z"/>
<path d="M562 4238 c-17 -17 -15 -47 3 -54 21 -9 47 15 43 40 -4 24 -28 32
-46 14z"/>
<path d="M7429 4228 c-10 -18 -8 -24 7 -35 10 -7 21 -13 26 -13 13 0 28 38 22
54 -9 23 -41 20 -55 -6z"/>
<path d="M671 4226 c-20 -24 -9 -51 19 -51 21 0 25 5 25 30 0 34 -24 45 -44
21z"/>
<path d="M4750 4221 c-13 -25 -3 -51 21 -51 22 0 41 32 33 54 -8 22 -41 20
-54 -3z"/>
<path d="M4862 4218 c-17 -17 -15 -47 3 -54 21 -9 47 15 43 40 -4 24 -28 32
-46 14z"/>
<path d="M7867 4204 c-13 -13 -7 -55 8 -60 21 -9 47 15 43 40 -3 21 -37 34
-51 20z"/>
<path d="M4652 4188 c-14 -14 -16 -54 -3 -62 28 -18 63 33 41 59 -15 18 -22
19 -38 3z"/>
<path d="M5152 4188 c-17 -17 -15 -47 3 -54 21 -9 47 15 43 40 -4 24 -28 32
-46 14z"/>
<path d="M354 4165 c-8 -34 9 -54 34 -39 26 17 22 58 -5 62 -17 3 -24 -3 -29
-23z"/>
<path d="M7595 4170 c-15 -16 -15 -22 -5 -35 17 -21 37 -19 50 4 7 15 6 23 -6
35 -19 20 -17 20 -39 -4z"/>
<path d="M462 4168 c-17 -17 -15 -47 3 -54 21 -9 47 15 43 40 -4 24 -28 32
-46 14z"/>
<path d="M4977 4174 c-13 -13 -7 -55 8 -60 21 -9 47 15 43 40 -3 21 -37 34
-51 20z"/>
<path d="M251 4136 c-20 -24 -9 -51 19 -51 21 0 25 5 25 30 0 34 -24 45 -44
21z"/>
<path d="M750 4131 c-11 -22 -4 -51 14 -51 26 1 41 22 37 58 -2 19 -39 14 -51
-7z"/>
<path d="M7760 4135 c-17 -21 -8 -50 17 -53 17 -3 24 3 29 22 10 42 -19 63
-46 31z"/>
<path d="M582 4118 c-17 -17 -15 -47 3 -54 21 -9 47 15 43 40 -4 24 -28 32
-46 14z"/>
<path d="M4730 4115 c-17 -21 -8 -50 17 -53 17 -3 24 3 29 22 10 42 -19 63
-46 31z"/>
<path d="M7470 4115 c-17 -21 -8 -50 17 -53 17 -3 24 3 29 22 10 42 -19 63
-46 31z"/>
<path d="M4871 4106 c-20 -24 -9 -51 19 -51 21 0 25 5 25 30 0 34 -24 45 -44
21z"/>
<path d="M5053 4084 c-15 -23 -15 -27 0 -41 13 -13 19 -14 31 -3 20 16 21 56
1 64 -9 3 -21 -4 -32 -20z"/>
<path d="M7660 4085 c-16 -19 -9 -49 14 -53 35 -7 49 40 17 57 -14 8 -22 7
-31 -4z"/>
<path d="M7852 4088 c-7 -7 -12 -22 -12 -35 0 -31 33 -31 47 0 18 39 -6 64
-35 35z"/>
<path d="M330 4061 c-5 -11 -7 -27 -4 -35 9 -24 43 -19 53 7 16 41 -28 66 -49
28z"/>
<path d="M471 4048 c-16 -42 28 -67 49 -29 5 11 7 27 4 35 -9 24 -43 19 -53
-6z"/>
<path d="M11395 4049 c-10 -30 18 -58 40 -39 22 18 15 54 -12 58 -15 2 -23 -3
-28 -19z"/>
<path d="M662 4048 c-19 -19 -15 -58 7 -58 27 0 47 28 35 48 -14 21 -27 25
-42 10z"/>
<path d="M4792 4038 c-17 -17 -15 -47 4 -55 23 -9 51 23 38 44 -14 22 -27 26
-42 11z"/>
<path d="M7342 4038 c-16 -16 -15 -33 2 -47 22 -18 46 -2 46 30 0 31 -25 40
-48 17z"/>
<path d="M7560 4030 c-16 -29 -5 -52 22 -48 18 2 23 9 23 33 0 37 -28 46 -45
15z"/>
<path d="M4952 4028 c-17 -17 -15 -47 3 -54 21 -9 47 15 43 40 -4 24 -28 32
-46 14z"/>
<path d="M7424 3996 c-9 -24 0 -51 18 -54 19 -4 42 33 34 54 -7 18 -45 18 -52
0z"/>
<path d="M7917 4004 c-13 -13 -7 -55 8 -60 21 -9 47 15 43 40 -3 21 -37 34
-51 20z"/>
<path d="M9631 3959 c-306 -164 -626 -404 -805 -600 -120 -133 -242 -339 -303
-514 -24 -71 -27 -94 -28 -210 0 -110 3 -140 23 -197 48 -138 157 -267 280
-330 95 -50 147 -61 251 -56 78 4 99 9 164 41 132 65 228 182 283 342 22 67
27 96 26 180 -1 174 -71 381 -167 493 -21 23 -35 51 -35 66 0 19 -5 26 -20 26
-33 0 -43 -34 -21 -72 10 -18 27 -56 37 -85 15 -45 16 -56 5 -77 -17 -31 -8
-56 19 -56 24 0 27 -31 5 -50 -21 -17 -19 -37 5 -52 20 -13 28 -48 10 -48 -5
0 -15 -10 -21 -22 -10 -18 -8 -24 11 -40 20 -16 22 -24 16 -76 -7 -65 -26
-130 -51 -184 -15 -29 -25 -38 -49 -40 -28 -3 -31 -6 -31 -40 0 -43 -8 -53
-43 -53 -19 0 -30 -8 -39 -26 -14 -28 -68 -53 -140 -64 -41 -6 -42 -6 -40 22
3 39 -37 46 -54 9 l-12 -25 -45 32 c-55 40 -92 83 -92 107 0 11 -11 30 -24 43
-32 32 -48 91 -34 123 9 19 8 28 -5 42 -20 22 -22 74 -6 138 10 37 15 44 31
38 10 -3 25 0 33 6 21 18 18 51 -5 57 -18 5 -17 9 16 74 31 63 36 68 53 57 15
-9 23 -9 35 1 21 17 20 48 0 59 -14 8 -13 14 11 50 24 36 29 39 42 27 18 -18
25 -19 41 -3 17 17 15 45 -5 56 -15 9 -13 14 14 48 17 22 40 48 52 58 19 17
21 17 21 2 0 -22 26 -31 45 -16 19 16 19 47 0 58 -14 7 -13 11 5 27 11 10 30
23 42 29 13 6 24 20 26 31 5 25 109 134 140 146 12 5 25 17 29 26 10 29 34 52
48 47 15 -6 45 21 45 41 0 7 26 38 57 68 51 49 59 53 70 39 18 -25 48 -3 48
36 0 18 9 40 24 56 l24 25 17 -21 17 -21 16 24 c21 29 22 49 2 49 -23 0 -19 8
30 62 25 28 45 54 45 59 0 21 -51 5 -139 -42z"/>
<path d="M392 3988 c-17 -17 -15 -47 3 -54 21 -9 47 15 43 40 -4 24 -28 32
-46 14z"/>
<path d="M551 3976 c-14 -17 -6 -56 12 -56 24 0 39 18 35 41 -4 28 -30 36 -47
15z"/>
<path d="M7677 3984 c-13 -13 -7 -55 8 -60 21 -9 47 15 43 40 -3 21 -37 34
-51 20z"/>
<path d="M6462 3968 c-17 -17 -15 -47 4 -55 23 -9 51 23 38 44 -14 22 -27 26
-42 11z"/>
<path d="M7784 3955 c-8 -34 9 -54 34 -39 26 17 22 58 -5 62 -17 3 -24 -3 -29
-23z"/>
<path d="M3735 3877 c-287 -153 -534 -333 -745 -546 -141 -142 -214 -244 -296
-415 -74 -155 -98 -246 -97 -371 1 -172 66 -322 188 -434 115 -105 224 -146
370 -139 80 3 101 8 161 37 180 88 314 310 314 518 0 174 -76 395 -171 497
-25 28 -39 53 -39 70 0 20 -4 27 -16 24 -32 -6 -40 -35 -21 -68 10 -16 27 -55
37 -86 18 -50 18 -58 4 -78 -17 -27 -9 -56 16 -56 24 0 31 -22 14 -45 -19 -26
-18 -41 7 -66 l21 -21 -21 -22 c-26 -28 -27 -56 -2 -63 17 -4 19 -12 15 -57
-7 -73 -24 -134 -50 -188 -19 -36 -30 -47 -51 -50 -24 -3 -28 -8 -29 -36 0
-38 -16 -56 -47 -57 -13 0 -26 -10 -35 -27 -13 -28 -67 -51 -147 -64 -40 -6
-41 -5 -40 23 0 21 -5 29 -22 31 -17 3 -24 -3 -29 -22 -5 -22 -9 -24 -26 -15
-49 26 -118 99 -118 124 0 12 -11 31 -24 43 -34 29 -53 94 -38 127 10 21 8 28
-9 44 -17 16 -20 26 -14 67 12 88 25 128 38 115 17 -17 35 -13 47 8 12 23 3
51 -16 51 -19 0 -18 2 16 70 31 62 45 77 55 60 10 -16 33 -12 45 9 12 24 3 51
-17 51 -12 0 -12 4 2 28 9 15 23 36 31 47 14 19 16 19 25 3 13 -24 36 -23 49
1 15 29 12 41 -11 50 -20 7 -18 11 35 67 31 32 56 55 55 49 -5 -40 32 -50 52
-13 10 18 8 24 -9 39 l-21 16 22 21 c12 11 31 22 42 24 11 2 21 12 23 23 4 23
131 155 149 155 6 0 18 12 25 27 12 24 22 32 68 53 8 4 17 17 20 30 3 13 31
46 63 73 44 39 60 48 69 39 29 -29 68 10 49 46 -8 15 -3 25 24 52 32 31 35 32
35 13 0 -33 21 -39 41 -12 24 31 24 40 -1 46 -18 5 -15 10 25 55 84 93 55 101
-90 25z"/>
<path d="M7474 3916 c-8 -20 -1 -49 12 -53 17 -6 46 26 42 46 -4 21 -46 27
-54 7z"/>
<path d="M7577 3914 c-13 -13 -7 -55 8 -60 21 -9 47 15 43 40 -3 21 -37 34
-51 20z"/>
<path d="M11355 3909 c-11 -17 1 -21 15 -4 8 9 8 15 2 15 -6 0 -14 -5 -17 -11z"/>
<path d="M7372 3878 c-17 -17 -15 -47 3 -54 21 -9 47 15 43 40 -4 24 -28 32
-46 14z"/>
<path d="M7865 3869 c-10 -30 18 -57 39 -39 9 7 16 23 16 36 0 32 -45 34 -55
3z"/>
<path d="M7697 3864 c-13 -13 -7 -52 9 -58 22 -9 46 13 42 38 -3 21 -37 34
-51 20z"/>
<path d="M11257 3863 c-13 -12 -7 -51 8 -57 16 -6 45 18 45 39 0 19 -39 33
-53 18z"/>
<path d="M6410 3810 c-6 -11 -7 -20 -3 -20 5 0 14 9 21 20 7 11 8 20 2 20 -5
0 -14 -9 -20 -20z"/>
<path d="M11167 3819 c-22 -13 -22 -55 -1 -63 34 -13 60 38 31 62 -8 7 -18 7
-30 1z"/>
<path d="M7452 3808 c-16 -16 -15 -33 3 -48 20 -17 47 5 43 34 -4 24 -28 32
-46 14z"/>
<path d="M7592 3798 c-16 -16 -15 -33 4 -49 14 -11 19 -10 35 9 10 13 15 30
12 37 -6 18 -35 19 -51 3z"/>
<path d="M7773 3778 c-13 -30 -6 -48 17 -48 26 0 45 37 29 56 -17 20 -34 17
-46 -8z"/>
<path d="M6311 3761 c-14 -25 -4 -51 20 -51 24 0 43 34 26 47 -28 22 -36 23
-46 4z"/>
<path d="M7507 3734 c-13 -13 -7 -55 8 -60 21 -9 47 15 43 40 -3 21 -37 34
-51 20z"/>
<path d="M6222 3718 c-19 -19 -15 -58 7 -58 27 0 47 28 35 48 -14 21 -27 25
-42 10z"/>
<path d="M7664 3705 c-8 -34 9 -54 34 -39 26 17 22 58 -5 62 -17 3 -24 -3 -29
-23z"/>
<path d="M11070 3689 c-13 -23 1 -49 26 -49 21 0 38 38 23 56 -16 20 -36 17
-49 -7z"/>
<path d="M11177 3693 c-13 -12 -7 -54 9 -60 23 -8 47 20 39 46 -6 20 -34 28
-48 14z"/>
<path d="M9485 3674 c-9 -9 -14 -23 -11 -31 3 -8 6 -17 6 -19 0 -2 9 -4 20 -4
26 0 46 36 29 56 -15 18 -24 18 -44 -2z"/>
<path d="M3591 3596 c-20 -24 -9 -51 19 -51 21 0 25 5 25 30 0 34 -24 45 -44
21z"/>
<path d="M6127 3604 c-12 -12 -8 -41 8 -54 20 -17 47 5 43 34 -3 21 -37 34
-51 20z"/>
<path d="M6232 3588 c-16 -16 -15 -33 3 -48 20 -17 45 3 45 36 0 26 -27 33
-48 12z"/>
<path d="M11052 3588 c-17 -17 -15 -47 3 -54 21 -9 47 15 43 40 -4 24 -28 32
-46 14z"/>
<path d="M9440 3525 c-7 -9 -11 -18 -8 -20 3 -3 11 1 18 10 7 9 11 18 8 20 -3
3 -11 -1 -18 -10z"/>
<path d="M10952 3528 c-17 -17 -15 -47 3 -54 21 -9 47 15 43 40 -4 24 -28 32
-46 14z"/>
<path d="M11107 3513 c-4 -3 -7 -19 -7 -35 0 -21 5 -28 20 -28 23 0 43 32 34
54 -6 16 -35 22 -47 9z"/>
<path d="M6101 3481 c-7 -13 -7 -23 2 -35 22 -30 65 3 51 39 -8 21 -41 19 -53
-4z"/>
<path d="M9340 3475 c-19 -23 -8 -50 20 -50 18 0 26 6 28 22 4 29 -30 49 -48
28z"/>
<path d="M3546 3444 c-18 -18 -20 -24 -6 -24 5 0 14 9 20 20 13 24 7 26 -14 4z"/>
<path d="M6006 3429 c-11 -16 -12 -27 -5 -41 13 -23 22 -23 45 3 13 15 16 24
8 36 -16 26 -31 26 -48 2z"/>
<path d="M9241 3421 c-15 -27 -3 -53 23 -49 16 2 21 10 21 33 0 36 -28 46 -44
16z"/>
<path d="M10871 3416 c-19 -23 -4 -58 22 -54 17 2 22 10 22 33 0 34 -24 45
-44 21z"/>
<path d="M6162 3408 c-16 -16 -15 -33 3 -48 20 -17 45 3 45 36 0 26 -27 33
-48 12z"/>
<path d="M11040 3405 c-17 -21 -8 -50 17 -53 26 -4 41 31 23 53 -16 19 -24 19
-40 0z"/>
<path d="M11150 3401 c-13 -25 -3 -51 21 -51 25 0 44 37 28 56 -16 20 -36 18
-49 -5z"/>
<path d="M3444 3385 c-8 -21 2 -45 19 -45 20 0 40 27 33 45 -7 19 -45 20 -52
0z"/>
<path d="M10951 3366 c-14 -17 -6 -56 12 -56 24 0 39 18 35 41 -4 28 -30 36
-47 15z"/>
<path d="M3351 3346 c-20 -24 -9 -51 19 -51 21 0 25 5 25 30 0 34 -24 45 -44
21z"/>
<path d="M5924 3305 c-8 -34 9 -54 34 -39 26 17 22 58 -5 62 -17 3 -24 -3 -29
-23z"/>
<path d="M6090 3299 c-13 -23 1 -49 26 -49 18 0 35 34 28 54 -9 23 -41 20 -54
-5z"/>
<path d="M6207 3314 c-13 -13 -7 -52 9 -58 22 -9 46 13 42 38 -3 21 -37 34
-51 20z"/>
<path d="M9157 3314 c-10 -11 -9 -52 3 -59 18 -11 51 15 48 38 -3 22 -36 35
-51 21z"/>
<path d="M11097 3309 c-20 -11 -22 -40 -5 -57 15 -15 48 3 48 27 0 27 -21 42
-43 30z"/>
<path d="M9254 3284 c-10 -41 27 -57 49 -22 14 21 2 48 -22 48 -14 0 -23 -9
-27 -26z"/>
<path d="M10834 3286 c-8 -20 -1 -49 12 -53 17 -6 46 26 42 46 -4 21 -46 27
-54 7z"/>
<path d="M6017 3279 c-20 -11 -23 -55 -4 -62 19 -7 47 12 47 32 0 27 -21 42
-43 30z"/>
<path d="M10972 3268 c-17 -17 -15 -47 3 -54 21 -9 47 15 43 40 -4 24 -28 32
-46 14z"/>
<path d="M10722 3258 c-19 -19 -14 -45 10 -52 28 -7 41 5 36 35 -3 27 -27 36
-46 17z"/>
<path d="M3262 3228 c-16 -16 -15 -33 3 -48 20 -17 45 3 45 36 0 26 -27 33
-48 12z"/>
<path d="M3367 3223 c-10 -10 -8 -51 2 -57 24 -15 56 20 45 49 -6 15 -35 20
-47 8z"/>
<path d="M11150 3209 c-13 -23 1 -49 26 -49 18 0 35 34 28 54 -9 23 -41 20
-54 -5z"/>
<path d="M6145 3204 c-9 -9 -14 -23 -11 -31 3 -8 6 -17 6 -19 0 -2 9 -4 20 -4
26 0 46 36 29 56 -15 18 -24 18 -44 -2z"/>
<path d="M5890 3189 c-15 -27 -6 -49 19 -49 26 0 43 30 30 53 -13 23 -36 21
-49 -4z"/>
<path d="M9132 3198 c-16 -16 -15 -33 3 -48 20 -17 45 3 45 36 0 26 -27 33
-48 12z"/>
<path d="M10875 3180 c-8 -26 6 -43 31 -38 13 2 19 12 19 28 0 34 -40 41 -50
10z"/>
<path d="M6021 3161 c-13 -24 8 -55 31 -46 19 8 33 40 23 55 -10 17 -44 11
-54 -9z"/>
<path d="M5774 3155 c-9 -23 3 -45 25 -45 20 0 37 32 26 50 -9 15 -45 12 -51
-5z"/>
<path d="M11047 3152 c-18 -20 -14 -47 8 -56 21 -8 51 32 39 51 -15 25 -28 26
-47 5z"/>
<path d="M9035 3144 c-19 -20 -19 -38 1 -55 14 -11 19 -10 35 9 29 37 -3 79
-36 46z"/>
<path d="M10757 3132 c-21 -23 -21 -36 -1 -53 14 -11 19 -10 35 10 14 17 16
27 9 42 -13 24 -22 24 -43 1z"/>
<path d="M6215 3124 c-19 -19 -19 -38 0 -54 20 -16 45 3 45 35 0 29 -25 39
-45 19z"/>
<path d="M3237 3124 c-13 -13 -7 -55 8 -60 21 -9 47 15 43 40 -3 21 -37 34
-51 20z"/>
<path d="M9184 3105 c-8 -34 9 -54 34 -39 26 17 22 58 -5 62 -17 3 -24 -3 -29
-23z"/>
<path d="M11135 3104 c-21 -21 -15 -48 11 -52 16 -2 23 4 28 23 11 44 -9 59
-39 29z"/>
<path d="M5936 3088 c-15 -21 -15 -24 1 -35 22 -17 28 -16 44 3 9 11 10 20 3
32 -16 25 -31 25 -48 0z"/>
<path d="M10941 3092 c-21 -39 29 -58 53 -19 8 14 8 20 -4 27 -23 15 -38 12
-49 -8z"/>
<path d="M3137 3064 c-10 -11 -9 -52 3 -59 18 -11 51 15 48 38 -3 22 -36 35
-51 21z"/>
<path d="M6100 3055 c-17 -21 -8 -50 17 -53 17 -3 24 3 29 22 10 42 -19 63
-46 31z"/>
<path d="M10632 3058 c-17 -17 -15 -47 3 -54 21 -9 47 15 43 40 -4 24 -28 32
-46 14z"/>
<path d="M10857 3059 c-20 -11 -23 -55 -4 -62 19 -7 47 12 47 32 0 27 -21 42
-43 30z"/>
<path d="M3291 3031 c-7 -13 -7 -23 2 -35 22 -30 65 3 51 39 -8 21 -41 19 -53
-4z"/>
<path d="M5810 3035 c-17 -21 -8 -50 17 -53 17 -3 24 3 29 22 10 42 -19 63
-46 31z"/>
<path d="M8954 3026 c-9 -24 0 -51 18 -54 19 -4 42 33 34 54 -7 18 -45 18 -52
0z"/>
<path d="M9121 3016 c-14 -17 -6 -56 12 -56 24 0 39 18 35 41 -4 28 -30 36
-47 15z"/>
<path d="M9237 3024 c-13 -13 -7 -55 8 -60 21 -9 47 15 43 40 -3 21 -37 34
-51 20z"/>
<path d="M10711 3016 c-20 -24 -9 -51 19 -51 21 0 25 5 25 30 0 34 -24 45 -44
21z"/>
<path d="M11200 3009 c-13 -23 1 -49 26 -49 18 0 35 34 28 54 -9 23 -41 20
-54 -5z"/>
<path d="M6000 3004 c-19 -22 -8 -49 20 -49 33 0 42 49 11 58 -11 3 -25 -1
-31 -9z"/>
<path d="M6190 3005 c-15 -18 -9 -49 11 -53 17 -3 43 43 34 59 -9 14 -31 11
-45 -6z"/>
<path d="M10961 2996 c-19 -23 -4 -58 22 -54 17 2 22 10 22 33 0 34 -24 45
-44 21z"/>
<path d="M9042 2988 c-14 -14 -16 -54 -3 -62 28 -18 63 33 41 59 -15 18 -22
19 -38 3z"/>
<path d="M11070 2981 c-13 -25 -3 -51 21 -51 25 0 44 37 28 56 -16 20 -36 18
-49 -5z"/>
<path d="M5679 2949 c-8 -17 -8 -24 3 -36 26 -25 65 7 52 42 -9 22 -42 18 -55
-6z"/>
<path d="M5905 2954 c-9 -9 -14 -23 -11 -31 3 -8 6 -17 6 -19 0 -2 9 -4 20 -4
26 0 46 36 29 56 -15 18 -24 18 -44 -2z"/>
<path d="M3061 2946 c-15 -18 -5 -56 13 -56 19 0 38 26 34 47 -4 23 -31 28
-47 9z"/>
<path d="M3232 2938 c-17 -17 -15 -47 3 -54 21 -9 47 15 43 40 -4 24 -28 32
-46 14z"/>
<path d="M3342 2938 c-16 -16 -15 -33 3 -48 20 -17 45 3 45 36 0 26 -27 33
-48 12z"/>
<path d="M10762 2938 c-17 -17 -15 -47 3 -54 21 -9 47 15 43 40 -4 24 -28 32
-46 14z"/>
<path d="M10860 2919 c-13 -23 1 -49 26 -49 21 0 38 38 23 56 -16 20 -36 17
-49 -7z"/>
<path d="M5767 2924 c-13 -13 -7 -55 8 -60 21 -9 47 15 43 40 -3 21 -37 34
-51 20z"/>
<path d="M6255 2909 c-10 -30 18 -57 39 -39 9 7 16 23 16 36 0 32 -45 34 -55
3z"/>
<path d="M9170 2910 c-16 -29 -5 -52 22 -48 18 2 23 9 23 33 0 37 -28 46 -45
15z"/>
<path d="M8921 2906 c-20 -24 -9 -51 19 -51 21 0 25 5 25 30 0 34 -24 45 -44
21z"/>
<path d="M3142 2898 c-16 -16 -15 -33 3 -48 20 -17 45 3 45 36 0 26 -27 33
-48 12z"/>
<path d="M6017 2904 c-13 -13 -7 -52 9 -58 22 -9 46 13 42 38 -3 21 -37 34
-51 20z"/>
<path d="M10655 2894 c-9 -9 -14 -23 -11 -31 3 -8 6 -17 6 -19 0 -2 9 -4 20
-4 25 0 41 30 29 53 -12 21 -23 22 -44 1z"/>
<path d="M11157 2904 c-13 -13 -7 -55 8 -60 21 -9 47 15 43 40 -3 21 -37 34
-51 20z"/>
<path d="M1615 2858 c-363 -188 -760 -505 -928 -740 -69 -96 -164 -275 -192
-363 -46 -139 -55 -243 -30 -360 48 -227 243 -420 458 -455 230 -36 450 126
543 400 28 81 26 248 -4 360 -30 109 -89 233 -141 292 -26 29 -41 56 -41 73 0
22 -4 26 -22 23 -30 -4 -34 -30 -12 -76 9 -20 25 -59 35 -86 15 -45 15 -52 2
-73 -19 -28 -11 -53 17 -53 21 0 29 -33 10 -45 -15 -10 -12 -55 5 -61 8 -4 15
-15 15 -25 0 -11 -7 -22 -15 -25 -8 -4 -15 -17 -15 -30 0 -14 7 -27 15 -30 32
-13 11 -163 -34 -253 -16 -30 -27 -41 -45 -41 -33 0 -53 -26 -38 -50 14 -23
-9 -45 -47 -45 -18 0 -26 -6 -31 -24 -6 -27 -66 -55 -141 -66 -44 -7 -45 -6
-44 22 0 23 -4 28 -25 28 -18 0 -26 -6 -28 -22 -3 -22 -5 -22 -33 -8 -16 9
-29 20 -29 25 0 6 -6 10 -14 10 -20 0 -78 72 -71 88 2 7 -5 20 -16 30 -33 28
-51 81 -44 133 5 38 3 47 -11 53 -14 5 -16 15 -11 66 6 54 34 142 36 113 2
-22 41 -14 51 10 6 17 4 26 -12 40 l-21 18 34 64 c31 60 49 79 49 55 0 -19 39
-10 51 12 10 18 8 24 -9 38 l-20 17 27 42 c24 36 30 40 41 26 17 -21 37 -19
50 4 12 23 4 49 -17 53 -10 2 0 20 35 60 42 48 51 54 55 37 7 -25 43 -25 57 1
8 15 6 24 -9 39 -19 19 -19 19 2 39 12 11 32 23 45 27 12 3 22 14 22 23 0 19
129 152 147 152 7 0 18 12 25 27 12 24 22 32 68 53 8 4 16 17 18 28 2 12 28
44 58 72 55 49 74 60 74 40 0 -5 9 -10 20 -10 25 0 43 39 27 58 -8 10 -1 22
26 50 33 33 37 35 37 15 0 -33 20 -39 41 -12 24 31 24 40 -2 46 -19 5 -19 7 9
37 96 103 78 122 -53 54z"/>
<path d="M6125 2879 c-10 -30 18 -58 40 -39 22 18 15 54 -12 58 -15 2 -23 -3
-28 -19z"/>
<path d="M9052 2878 c-16 -16 -15 -33 4 -49 14 -11 19 -10 35 9 10 13 15 30
12 37 -6 18 -35 19 -51 3z"/>
<path d="M10979 2869 c-14 -26 8 -53 34 -43 25 9 23 64 -3 64 -10 0 -24 -10
-31 -21z"/>
<path d="M8802 2868 c-19 -19 -14 -34 13 -46 21 -10 27 -9 31 2 15 39 -17 71
-44 44z"/>
<path d="M5827 2849 c-20 -11 -23 -55 -4 -62 19 -7 47 12 47 32 0 27 -21 42
-43 30z"/>
<path d="M3282 2838 c-17 -17 -15 -47 3 -54 21 -9 47 15 43 40 -4 24 -28 32
-46 14z"/>
<path d="M9247 2839 c-20 -11 -23 -55 -4 -62 19 -7 47 12 47 32 0 27 -21 42
-43 30z"/>
<path d="M3032 2828 c-19 -19 -15 -58 7 -58 27 0 47 28 35 48 -14 21 -27 25
-42 10z"/>
<path d="M5915 2819 c-10 -30 18 -58 40 -39 22 18 15 54 -12 58 -15 2 -23 -3
-28 -19z"/>
<path d="M10737 2834 c-13 -13 -7 -55 8 -60 21 -9 47 15 43 40 -3 21 -37 34
-51 20z"/>
<path d="M10882 2818 c-17 -17 -15 -47 3 -54 21 -9 47 15 43 40 -4 24 -28 32
-46 14z"/>
<path d="M6215 2804 c-19 -20 -19 -38 1 -55 14 -11 19 -10 35 9 29 37 -3 79
-36 46z"/>
<path d="M8966 2805 c-22 -22 -20 -42 5 -50 26 -9 42 6 37 36 -4 29 -21 34
-42 14z"/>
<path d="M11060 2799 c-16 -29 -5 -51 22 -47 38 5 34 67 -4 68 -4 0 -12 -9
-18 -21z"/>
<path d="M3154 2785 c-8 -34 9 -54 34 -39 26 17 22 58 -5 62 -17 3 -24 -3 -29
-23z"/>
<path d="M5712 2798 c-17 -17 -15 -47 3 -54 21 -9 47 15 43 40 -4 24 -28 32
-46 14z"/>
<path d="M2912 2788 c-17 -17 -15 -36 7 -47 14 -8 22 -7 31 4 26 31 -9 72 -38
43z"/>
<path d="M6047 2789 c-20 -11 -22 -40 -5 -57 15 -15 48 3 48 27 0 27 -21 42
-43 30z"/>
<path d="M9132 2768 c-17 -17 -15 -47 3 -54 21 -9 47 15 43 40 -4 24 -28 32
-46 14z"/>
<path d="M3346 2751 c-20 -22 -20 -35 0 -52 14 -11 19 -10 35 9 30 38 -3 79
-35 43z"/>
<path d="M8842 2748 c-17 -17 -15 -48 4 -55 23 -8 47 20 39 46 -7 23 -25 27
-43 9z"/>
<path d="M10790 2741 c-13 -26 -3 -51 21 -51 21 0 40 36 32 58 -8 19 -41 14
-53 -7z"/>
<path d="M10951 2732 c-11 -21 3 -52 24 -52 19 0 37 34 29 54 -8 21 -41 20
-53 -2z"/>
<path d="M3072 2728 c-27 -27 5 -73 38 -53 20 12 4 65 -20 65 -3 0 -11 -5 -18
-12z"/>
<path d="M5792 2728 c-16 -16 -15 -33 3 -48 20 -17 45 3 45 36 0 26 -27 33
-48 12z"/>
<path d="M5931 2711 c-13 -24 8 -55 31 -46 19 8 33 40 23 55 -10 17 -44 11
-54 -9z"/>
<path d="M9032 2718 c-17 -17 -15 -48 3 -54 18 -7 45 12 45 32 0 20 -34 36
-48 22z"/>
<path d="M9217 2723 c-13 -13 -7 -54 9 -60 19 -7 34 13 34 45 0 21 -27 31 -43
15z"/>
<path d="M6114 2696 c-7 -29 1 -46 21 -46 19 0 37 34 29 54 -10 25 -43 19 -50
-8z"/>
<path d="M3230 2681 c-13 -25 -3 -51 21 -51 25 0 44 37 28 56 -16 20 -36 18
-49 -5z"/>
<path d="M2940 2660 c-16 -29 -5 -52 22 -48 18 2 23 9 23 33 0 37 -28 46 -45
15z"/>
<path d="M8712 2668 c-16 -16 -15 -33 3 -48 20 -17 45 3 45 36 0 26 -27 33
-48 12z"/>
<path d="M8931 2666 c-20 -24 -9 -51 19 -51 21 0 25 5 25 30 0 34 -24 45 -44
21z"/>
<path d="M5844 2634 c-10 -41 27 -57 49 -22 14 21 2 48 -22 48 -14 0 -23 -9
-27 -26z"/>
<path d="M3130 2631 c-5 -11 -7 -27 -4 -35 9 -23 41 -20 55 6 10 18 8 24 -7
35 -24 18 -31 17 -44 -6z"/>
<path d="M3320 2635 c-16 -19 -9 -49 12 -53 19 -4 42 33 34 54 -7 18 -30 18
-46 -1z"/>
<path d="M6005 2629 c-10 -30 18 -57 39 -39 9 7 16 23 16 36 0 32 -45 34 -55
3z"/>
<path d="M9297 2639 c-20 -11 -23 -55 -4 -62 19 -7 47 12 47 32 0 27 -21 42
-43 30z"/>
<path d="M8791 2622 c-11 -21 3 -52 24 -52 19 0 37 34 29 54 -8 21 -41 20 -53
-2z"/>
<path d="M9044 2606 c-8 -20 -1 -49 12 -53 17 -6 46 26 42 46 -4 21 -46 27
-54 7z"/>
<path d="M9157 2604 c-13 -13 -7 -55 8 -60 21 -9 47 15 43 40 -3 21 -37 34
-51 20z"/>
<path d="M2817 2594 c-13 -13 -7 -55 8 -60 21 -9 47 15 43 40 -3 21 -37 34
-51 20z"/>
<path d="M3042 2588 c-17 -17 -15 -47 3 -54 21 -9 47 15 43 40 -4 24 -28 32
-46 14z"/>
<path d="M1450 2565 c-17 -21 -8 -50 17 -53 17 -3 24 3 29 22 10 42 -19 63
-46 31z"/>
<path d="M3396 2551 c-20 -22 -20 -35 0 -51 13 -11 18 -10 35 6 21 21 18 48
-6 58 -7 2 -20 -3 -29 -13z"/>
<path d="M8846 2549 c-25 -37 8 -74 39 -43 18 19 19 36 3 52 -17 17 -25 15
-42 -9z"/>
<path d="M2902 2548 c-17 -17 -15 -47 3 -54 21 -9 47 15 43 40 -4 24 -28 32
-46 14z"/>
<path d="M8947 2544 c-12 -13 -8 -52 7 -57 21 -8 49 16 44 39 -3 19 -38 31
-51 18z"/>
<path d="M3152 2528 c-16 -16 -15 -33 3 -48 20 -17 45 3 45 36 0 26 -27 33
-48 12z"/>
<path d="M3259 2509 c-8 -17 -8 -24 3 -36 26 -25 65 7 52 42 -9 22 -42 18 -55
-6z"/>
<path d="M7635 2487 c-302 -159 -612 -388 -810 -599 -173 -184 -313 -453 -345
-662 -47 -310 183 -620 490 -660 221 -29 459 168 526 434 46 181 -29 481 -153
621 -27 30 -43 56 -43 73 0 29 -20 35 -40 11 -10 -12 -8 -26 13 -73 44 -102
50 -129 33 -153 -17 -25 -11 -49 14 -49 24 0 33 -28 15 -46 -20 -21 -19 -37 5
-59 11 -10 20 -23 20 -29 0 -6 -9 -17 -20 -24 -26 -16 -26 -52 1 -59 18 -5 20
-11 14 -62 -8 -74 -22 -126 -48 -181 -17 -35 -28 -46 -52 -50 -26 -5 -30 -10
-31 -38 0 -38 -16 -56 -47 -57 -13 0 -26 -10 -34 -26 -15 -31 -65 -53 -141
-64 -51 -7 -53 -6 -44 12 6 10 7 25 3 32 -12 19 -44 10 -56 -16 -12 -23 -17
-22 -63 14 -48 37 -82 78 -82 100 0 12 -8 27 -18 32 -29 16 -57 97 -43 127 11
25 6 54 -10 54 -12 0 -11 97 2 143 9 32 13 36 33 31 14 -3 27 1 35 10 15 18 5
56 -15 56 -18 0 -18 3 7 53 40 78 49 87 69 75 14 -9 22 -9 34 1 22 19 20 52
-4 58 -18 5 -18 8 11 50 29 41 32 43 44 26 11 -14 18 -16 32 -7 27 16 29 52 3
62 -20 7 -17 12 34 67 48 52 55 57 56 37 0 -18 5 -23 21 -20 35 5 47 33 25 57
-18 20 -18 22 -1 41 10 11 26 20 37 20 11 0 23 11 30 28 14 32 127 152 145
152 6 0 18 12 25 27 12 24 22 32 68 53 8 4 17 16 20 28 3 12 31 44 62 72 50
45 59 49 77 38 15 -9 23 -9 35 1 18 15 21 47 5 57 -7 4 2 19 23 41 32 33 33
33 38 12 8 -33 26 -34 46 -3 17 25 17 27 0 40 -17 12 -16 16 23 60 75 85 49
96 -74 31z"/>
<path d="M9247 2518 c-20 -10 -22 -39 -5 -56 17 -17 48 4 48 32 0 28 -19 38
-43 24z"/>
<path d="M8737 2514 c-13 -13 -7 -55 8 -60 21 -9 47 15 43 40 -3 21 -37 34
-51 20z"/>
<path d="M9072 2498 c-17 -17 -15 -55 3 -62 16 -6 45 18 45 38 0 12 -19 36
-30 36 -3 0 -11 -5 -18 -12z"/>
<path d="M2955 2474 c-19 -19 -19 -38 0 -54 20 -16 45 3 45 35 0 29 -25 39
-45 19z"/>
<path d="M3049 2449 c-8 -17 -8 -24 3 -36 26 -25 65 7 52 42 -9 22 -42 18 -55
-6z"/>
<path d="M3358 2439 c-19 -10 -25 -54 -9 -63 15 -10 40 4 47 26 8 28 -15 50
-38 37z"/>
<path d="M8814 2425 c-8 -32 11 -48 39 -34 25 14 19 53 -10 57 -17 3 -24 -3
-29 -23z"/>
<path d="M2841 2426 c-19 -23 -4 -58 22 -54 17 2 22 10 22 33 0 34 -24 45 -44
21z"/>
<path d="M8962 2428 c-16 -16 -15 -33 3 -48 20 -17 45 3 45 36 0 26 -27 33
-48 12z"/>
<path d="M1406 2414 c-18 -18 -20 -24 -6 -24 5 0 14 9 20 20 13 24 7 26 -14 4z"/>
<path d="M3176 2411 c-20 -22 -20 -35 -1 -51 20 -16 45 3 45 35 0 30 -24 38
-44 16z"/>
<path d="M9141 2408 c-12 -31 -3 -50 23 -46 16 2 21 10 21 33 0 38 -31 47 -44
13z"/>
<path d="M1296 2355 c-16 -41 34 -63 55 -24 9 17 8 23 -2 30 -21 13 -46 11
-53 -6z"/>
<path d="M2924 2356 c-8 -20 -1 -49 12 -53 17 -6 46 26 42 46 -4 21 -46 27
-54 7z"/>
<path d="M8874 2356 c-8 -20 -1 -49 12 -53 17 -6 46 26 42 46 -4 21 -46 27
-54 7z"/>
<path d="M9047 2359 c-22 -13 -22 -55 -1 -63 34 -13 60 38 31 62 -8 7 -18 7
-30 1z"/>
<path d="M3067 2354 c-13 -13 -7 -55 8 -60 21 -9 47 15 43 40 -3 21 -37 34
-51 20z"/>
<path d="M3248 2325 c-9 -20 -9 -28 1 -38 17 -17 46 4 46 34 0 34 -32 37 -47
4z"/>
<path d="M1212 2318 c-7 -7 -12 -22 -12 -35 0 -18 6 -23 24 -23 29 0 44 33 26
55 -15 18 -22 19 -38 3z"/>
<path d="M2982 2278 c-16 -16 -15 -33 3 -48 20 -17 45 3 45 36 0 26 -27 33
-48 12z"/>
<path d="M3139 2259 c-8 -17 -8 -24 3 -36 26 -25 65 7 52 42 -9 22 -42 18 -55
-6z"/>
<path d="M5115 2202 c-139 -67 -393 -227 -550 -349 -259 -201 -422 -387 -539
-617 -131 -257 -146 -462 -46 -664 130 -261 425 -382 655 -268 91 45 162 108
212 189 83 132 108 226 100 371 -9 168 -71 339 -162 451 -25 30 -45 63 -45 73
0 26 -10 33 -31 21 -20 -10 -25 -38 -10 -54 4 -6 21 -42 36 -81 26 -69 27 -72
10 -98 -14 -21 -15 -29 -5 -42 7 -8 19 -13 26 -10 18 7 25 -31 8 -45 -18 -15
-18 -48 0 -55 25 -10 28 -36 6 -56 -25 -24 -25 -43 -1 -60 17 -12 18 -21 11
-78 -11 -84 -22 -125 -49 -178 -17 -33 -26 -42 -40 -37 -24 7 -45 -19 -39 -50
6 -30 -13 -49 -50 -50 -20 0 -28 -6 -30 -22 -4 -24 -71 -55 -147 -67 -40 -7
-40 -7 -40 25 0 18 -5 34 -11 36 -13 4 -40 -19 -46 -39 -3 -9 -12 -8 -32 5
-51 34 -106 89 -106 107 0 29 -11 50 -25 50 -21 0 -50 97 -37 125 8 17 7 28
-5 45 -18 25 -19 91 -2 153 8 30 13 36 23 28 17 -15 44 -4 51 20 8 23 -1 39
-21 39 -19 0 -19 1 22 82 29 58 38 69 46 55 11 -21 22 -21 42 -1 22 21 20 43
-4 52 -18 7 -18 10 13 57 21 32 33 43 35 33 5 -23 29 -30 47 -12 19 20 19 33
-1 55 -15 17 -13 21 27 68 24 28 48 51 53 51 5 0 6 -3 3 -7 -9 -8 12 -33 29
-33 18 0 35 34 28 54 -3 9 -13 16 -22 16 -12 0 -10 6 8 25 13 14 29 25 37 25
7 0 24 17 37 38 39 58 121 142 140 142 10 0 21 12 27 29 9 26 23 39 39 38 16
-1 50 26 50 41 0 10 27 44 60 77 55 54 61 58 73 42 15 -22 44 -14 52 14 4 11
2 26 -4 33 -8 9 -2 21 24 46 32 31 35 32 35 12 0 -27 21 -29 43 -4 21 23 21
38 1 46 -13 5 -8 15 25 55 37 44 52 81 34 81 -5 0 -35 -13 -68 -28z"/>
<path d="M1122 2198 c-16 -16 -15 -33 3 -48 20 -17 47 5 43 34 -4 24 -28 32
-46 14z"/>
<path d="M7476 2195 c-19 -20 -20 -39 -3 -54 20 -16 50 9 45 39 -4 30 -21 36
-42 15z"/>
<path d="M1219 2179 c-8 -17 -8 -24 3 -36 26 -25 65 7 52 42 -9 22 -42 18 -55
-6z"/>
<path d="M1094 2086 c-9 -24 0 -51 18 -54 19 -4 42 33 34 54 -7 18 -45 18 -52
0z"/>
<path d="M7430 2045 c-7 -9 -11 -18 -8 -20 3 -3 11 1 18 10 7 9 11 18 8 20 -3
3 -11 -1 -18 -10z"/>
<path d="M994 2026 c-8 -20 -1 -49 12 -53 17 -6 46 26 42 46 -4 21 -46 27 -54
7z"/>
<path d="M1152 2008 c-16 -16 -15 -33 2 -47 26 -22 60 11 49 47 -6 15 -35 16
-51 0z"/>
<path d="M7327 1993 c-4 -3 -7 -17 -7 -30 0 -31 45 -33 55 -2 9 28 -28 53 -48
32z"/>
<path d="M10218 1927 c-389 -204 -781 -520 -945 -762 -129 -191 -210 -393
-220 -545 -15 -254 131 -487 369 -588 54 -22 78 -26 164 -27 98 0 102 1 186
42 150 74 262 220 302 393 45 189 -24 460 -160 627 -19 23 -34 50 -34 62 0 28
-19 36 -38 17 -14 -14 -15 -20 -3 -49 59 -143 63 -159 44 -179 -13 -15 -15
-23 -6 -36 6 -9 18 -16 27 -16 18 2 23 -41 6 -51 -15 -9 -12 -45 5 -51 8 -4
15 -14 15 -24 0 -10 -7 -23 -15 -30 -8 -7 -15 -23 -15 -36 0 -15 6 -24 15 -24
34 0 12 -155 -36 -252 -19 -40 -26 -47 -45 -42 -16 4 -26 0 -34 -15 -6 -12 -8
-26 -5 -31 4 -6 3 -20 0 -31 -5 -16 -12 -19 -31 -15 -20 5 -28 1 -42 -24 -19
-34 -74 -59 -142 -67 -45 -5 -46 -4 -45 24 0 21 -5 28 -20 28 -11 0 -24 -10
-30 -22 -5 -13 -13 -23 -17 -23 -13 0 -128 101 -129 113 -1 7 -2 17 -4 22 -1
6 -3 16 -3 23 -1 6 -8 12 -16 12 -23 0 -48 77 -40 126 5 35 3 45 -10 50 -20 8
-21 59 -3 129 12 45 16 50 40 47 38 -5 55 30 27 58 l-20 20 30 60 c28 56 32
59 59 54 23 -5 32 -2 40 15 9 17 8 24 -7 38 -18 17 -17 19 6 56 24 36 42 48
42 27 0 -19 39 -10 51 12 10 18 8 24 -9 38 -20 17 -20 17 25 69 l45 51 18 -22
c15 -19 20 -20 34 -9 21 17 21 61 1 61 -26 0 11 47 46 59 18 6 29 17 29 28 0
20 135 161 148 154 4 -2 12 5 17 17 19 37 37 52 61 52 17 0 25 7 31 29 9 33
124 142 130 124 7 -19 41 -16 52 5 6 11 6 24 -1 36 -8 15 -4 24 22 47 37 34
40 35 40 9 0 -28 24 -25 44 5 15 23 15 25 -3 37 -18 11 -17 14 25 61 79 88 56
99 -68 34z"/>
<path d="M7235 1946 c-25 -18 -15 -51 15 -51 20 0 26 6 28 26 4 31 -18 44 -43
25z"/>
<path d="M922 1918 c-17 -17 -15 -47 3 -54 21 -9 47 15 43 40 -4 24 -28 32
-46 14z"/>
<path d="M1087 1913 c-13 -12 -7 -54 9 -60 23 -8 47 20 39 46 -6 20 -34 28
-48 14z"/>
<path d="M1201 1906 c-15 -18 -5 -56 13 -56 19 0 38 26 34 47 -4 23 -31 28
-47 9z"/>
<path d="M4912 1888 c-17 -17 -15 -47 3 -54 21 -9 47 15 43 40 -4 24 -28 32
-46 14z"/>
<path d="M995 1859 c-10 -30 18 -58 40 -39 22 18 15 54 -12 58 -15 2 -23 -3
-28 -19z"/>
<path d="M7139 1819 c-8 -17 -8 -24 3 -36 26 -25 65 7 52 42 -9 22 -42 18 -55
-6z"/>
<path d="M7244 1816 c-9 -24 0 -51 18 -54 19 -4 42 33 34 54 -7 18 -45 18 -52
0z"/>
<path d="M1142 1808 c-17 -17 -15 -47 4 -55 23 -9 51 23 38 44 -14 22 -27 26
-42 11z"/>
<path d="M887 1792 c-20 -22 -13 -52 13 -52 26 0 46 28 34 48 -15 24 -28 25
-47 4z"/>
<path d="M1017 1774 c-13 -13 -7 -55 8 -60 21 -9 47 15 43 40 -3 21 -37 34
-51 20z"/>
<path d="M767 1764 c-13 -14 -7 -43 12 -53 23 -13 45 8 39 36 -3 18 -38 30
-51 17z"/>
<path d="M4863 1735 c-9 -24 1 -27 15 -5 8 13 8 20 2 20 -6 0 -13 -7 -17 -15z"/>
<path d="M1195 1709 c-10 -30 18 -57 39 -39 9 7 16 23 16 36 0 32 -45 34 -55
3z"/>
<path d="M7122 1718 c-17 -17 -15 -47 3 -54 21 -9 47 15 43 40 -4 24 -28 32
-46 14z"/>
<path d="M932 1698 c-25 -25 -8 -58 28 -58 15 0 22 40 10 55 -15 18 -22 19
-38 3z"/>
<path d="M4764 1686 c-17 -43 26 -71 50 -33 9 15 7 21 -8 33 -25 18 -35 18
-42 0z"/>
<path d="M1090 1650 c-16 -29 -5 -52 22 -48 18 2 23 9 23 33 0 37 -28 46 -45
15z"/>
<path d="M7017 1664 c-13 -13 -7 -55 8 -60 21 -9 47 15 43 40 -3 21 -37 34
-51 20z"/>
<path d="M801 1636 c-20 -24 -9 -51 19 -51 21 0 25 5 25 30 0 34 -24 45 -44
21z"/>
<path d="M4672 1638 c-17 -17 -15 -47 3 -54 21 -9 47 15 43 40 -4 24 -28 32
-46 14z"/>
<path d="M7174 1636 c-9 -24 0 -51 18 -54 19 -4 42 33 34 54 -7 18 -45 18 -52
0z"/>
<path d="M10047 1634 c-13 -13 -7 -55 8 -60 21 -9 47 15 43 40 -3 21 -37 34
-51 20z"/>
<path d="M990 1599 c-16 -29 -5 -51 22 -47 31 4 36 43 9 57 -17 9 -22 8 -31
-10z"/>
<path d="M1180 1605 c-16 -19 -9 -49 13 -53 18 -4 42 41 31 59 -8 14 -30 11
-44 -6z"/>
<path d="M674 1556 c-9 -24 0 -51 18 -54 19 -4 42 33 34 54 -7 18 -45 18 -52
0z"/>
<path d="M902 1558 c-19 -19 -15 -58 7 -58 27 0 47 28 35 48 -14 21 -27 25
-42 10z"/>
<path d="M6941 1546 c-19 -23 -4 -58 22 -54 17 2 22 10 22 33 0 34 -24 45 -44
21z"/>
<path d="M7112 1538 c-17 -17 -15 -47 3 -54 21 -9 47 15 43 40 -4 24 -28 32
-46 14z"/>
<path d="M7219 1529 c-8 -17 -8 -24 3 -36 26 -25 65 7 52 42 -9 22 -42 18 -55
-6z"/>
<path d="M4585 1524 c-9 -9 -14 -23 -11 -31 3 -8 6 -17 6 -19 0 -2 9 -4 20 -4
25 0 41 30 29 53 -12 21 -23 22 -44 1z"/>
<path d="M762 1518 c-17 -17 -15 -47 3 -54 21 -9 47 15 43 40 -4 24 -28 32
-46 14z"/>
<path d="M1245 1509 c-10 -30 18 -57 39 -39 9 7 16 23 16 36 0 32 -45 34 -55
3z"/>
<path d="M4692 1518 c-7 -7 -12 -22 -12 -35 0 -18 6 -23 24 -23 29 0 44 33 26
55 -15 18 -22 19 -38 3z"/>
<path d="M1005 1489 c-10 -30 18 -58 40 -39 22 18 15 54 -12 58 -15 2 -23 -3
-28 -19z"/>
<path d="M7022 1498 c-16 -16 -15 -33 3 -48 20 -17 45 3 45 36 0 26 -27 33
-48 12z"/>
<path d="M1122 1488 c-16 -16 -15 -33 3 -48 20 -17 47 5 43 34 -4 24 -28 32
-46 14z"/>
<path d="M10000 1475 c-20 -24 -6 -28 15 -5 10 11 13 20 8 20 -6 0 -16 -7 -23
-15z"/>
<path d="M807 1444 c-13 -13 -7 -55 8 -60 21 -9 47 15 43 40 -3 21 -37 34 -51
20z"/>
<path d="M7161 1436 c-20 -24 -9 -51 19 -51 21 0 25 5 25 30 0 34 -24 45 -44
21z"/>
<path d="M912 1428 c-16 -16 -15 -33 3 -48 20 -17 45 3 45 36 0 26 -27 33 -48
12z"/>
<path d="M6910 1425 c-17 -21 -8 -50 17 -53 26 -4 41 31 23 53 -16 19 -24 19
-40 0z"/>
<path d="M9899 1419 c-13 -26 8 -53 33 -44 25 10 31 38 12 52 -24 18 -31 16
-45 -8z"/>
<path d="M4567 1419 c-20 -11 -23 -55 -4 -62 19 -7 47 12 47 32 0 27 -21 42
-43 30z"/>
<path d="M701 1396 c-20 -24 -9 -51 19 -51 21 0 25 5 25 30 0 34 -24 45 -44
21z"/>
<path d="M1199 1389 c-9 -17 -8 -25 6 -38 15 -15 18 -14 35 7 11 13 16 30 13
37 -8 22 -41 18 -54 -6z"/>
<path d="M7042 1398 c-17 -17 -15 -47 3 -54 21 -9 47 15 43 40 -4 24 -28 32
-46 14z"/>
<path d="M6792 1388 c-17 -17 -15 -36 7 -47 14 -8 22 -7 31 4 26 31 -9 72 -38
43z"/>
<path d="M1025 1369 c-10 -30 18 -57 39 -39 9 7 16 23 16 36 0 32 -45 34 -55
3z"/>
<path d="M9807 1384 c-13 -13 -7 -55 8 -60 21 -9 47 15 43 40 -3 21 -37 34
-51 20z"/>
<path d="M4461 1356 c-20 -24 -9 -51 19 -51 21 0 25 5 25 30 0 34 -24 45 -44
21z"/>
<path d="M7221 1341 c-13 -24 8 -55 31 -46 19 8 33 40 23 55 -10 17 -44 11
-54 -9z"/>
<path d="M4622 1338 c-16 -16 -15 -55 2 -61 22 -9 53 30 40 50 -14 22 -27 26
-42 11z"/>
<path d="M779 1319 c-8 -17 -8 -24 3 -36 26 -25 65 7 52 42 -9 22 -42 18 -55
-6z"/>
<path d="M6957 1329 c-23 -13 -22 -46 3 -54 25 -8 40 1 40 24 0 27 -21 42 -43
30z"/>
<path d="M924 1316 c-9 -24 0 -51 18 -54 19 -4 42 33 34 54 -7 18 -45 18 -52
0z"/>
<path d="M1108 1295 c-9 -20 -9 -28 1 -38 17 -17 46 4 46 34 0 34 -32 37 -47
4z"/>
<path d="M7123 1292 c-11 -7 -16 -26 -14 -49 1 -18 36 -16 52 3 21 25 -10 64
-38 46z"/>
<path d="M6825 1264 c-9 -9 -14 -23 -11 -31 3 -8 6 -17 6 -19 0 -2 9 -4 20 -4
26 0 46 36 29 56 -15 18 -24 18 -44 -2z"/>
<path d="M9721 1266 c-20 -24 -9 -51 19 -51 21 0 25 5 25 30 0 34 -24 45 -44
21z"/>
<path d="M9820 1251 c-13 -25 -3 -51 21 -51 24 0 40 30 28 53 -13 23 -36 22
-49 -2z"/>
<path d="M835 1239 c-10 -30 18 -57 39 -39 9 7 16 23 16 36 0 32 -45 34 -55 3z"/>
<path d="M4385 1244 c-19 -19 -19 -38 0 -54 20 -16 45 3 45 35 0 29 -25 39
-45 19z"/>
<path d="M1002 1238 c-16 -16 -15 -33 3 -48 20 -17 45 3 45 36 0 26 -27 33
-48 12z"/>
<path d="M4665 1234 c-20 -21 -16 -48 9 -52 27 -6 48 25 35 49 -12 23 -23 24
-44 3z"/>
<path d="M7200 1229 c-14 -25 -6 -49 14 -49 19 0 40 36 32 56 -8 21 -34 17
-46 -7z"/>
<path d="M4547 1234 c-13 -13 -7 -55 8 -60 21 -9 47 15 43 40 -3 21 -37 34
-51 20z"/>
<path d="M7010 1209 c0 -25 3 -30 21 -27 31 4 49 35 29 48 -31 20 -50 12 -50
-21z"/>
<path d="M4466 1194 c-24 -23 -16 -49 14 -49 21 0 25 5 25 29 0 35 -16 43 -39
20z"/>
<path d="M6694 1175 c-8 -34 9 -54 34 -39 26 17 22 58 -5 62 -17 3 -24 -3 -29
-23z"/>
<path d="M6920 1185 c-17 -21 -8 -50 17 -53 17 -3 24 3 29 23 4 18 2 30 -7 36
-19 12 -25 11 -39 -6z"/>
<path d="M9703 1163 c-7 -2 -13 -18 -13 -34 0 -22 5 -29 19 -29 27 0 47 28 35
48 -12 18 -24 23 -41 15z"/>
<path d="M6781 1146 c-20 -24 -9 -51 19 -51 21 0 25 5 25 30 0 34 -24 45 -44
21z"/>
<path d="M7271 1141 c-13 -24 8 -55 31 -46 19 8 33 40 23 55 -10 17 -44 11
-54 -9z"/>
<path d="M4594 1115 c-8 -34 9 -54 34 -39 26 17 22 58 -5 62 -17 3 -24 -3 -29
-23z"/>
<path d="M7032 1128 c-16 -16 -15 -33 2 -47 26 -22 63 10 50 44 -7 18 -35 20
-52 3z"/>
<path d="M4347 1124 c-13 -13 -7 -55 8 -60 21 -9 47 15 43 40 -3 21 -37 34
-51 20z"/>
<path d="M7141 1108 c-16 -42 28 -67 49 -29 5 11 7 27 4 35 -9 24 -43 19 -53
-6z"/>
<path d="M4480 1095 c-19 -23 -8 -50 20 -50 19 0 26 6 28 24 5 35 -26 53 -48
26z"/>
<path d="M9597 1104 c-13 -13 -7 -55 8 -60 21 -9 47 15 43 40 -3 21 -37 34
-51 20z"/>
<path d="M4227 1084 c-14 -15 -6 -43 14 -49 25 -8 42 6 37 31 -3 19 -38 31
-51 18z"/>
<path d="M9750 1070 c-16 -29 -5 -52 22 -48 18 2 23 9 23 33 0 37 -28 46 -45
15z"/>
<path d="M6832 1068 c-16 -16 -15 -33 3 -48 20 -17 45 3 45 36 0 26 -27 33
-48 12z"/>
<path d="M6931 1051 c-13 -24 8 -55 31 -46 19 8 33 40 23 55 -10 17 -44 11
-54 -9z"/>
<path d="M4665 1044 c-9 -9 -14 -23 -11 -31 3 -8 6 -17 6 -19 0 -2 9 -4 20 -4
26 0 46 36 29 56 -15 18 -24 18 -44 -2z"/>
<path d="M6720 1021 c-13 -25 -3 -51 21 -51 24 0 40 30 28 53 -13 23 -36 22
-49 -2z"/>
<path d="M7227 1034 c-13 -13 -7 -55 8 -60 21 -9 47 15 43 40 -3 21 -37 34
-51 20z"/>
<path d="M4392 1018 c-17 -17 -15 -36 7 -47 14 -8 22 -7 31 4 26 31 -9 72 -38
43z"/>
<path d="M7051 1001 c-7 -13 -6 -23 4 -37 15 -18 16 -18 35 4 10 13 16 30 13
37 -7 21 -40 18 -52 -4z"/>
<path d="M9520 985 c-19 -23 -8 -50 20 -50 19 0 26 6 28 24 5 35 -26 53 -48
26z"/>
<path d="M4550 969 c-13 -23 1 -49 26 -49 18 0 35 34 28 54 -9 23 -41 20 -54
-5z"/>
<path d="M9686 969 c-25 -37 8 -74 39 -43 18 19 19 36 3 52 -17 17 -25 15 -42
-9z"/>
<path d="M9801 976 c-20 -24 -9 -51 19 -51 21 0 25 5 25 30 0 34 -24 45 -44
21z"/>
<path d="M4259 949 c-8 -17 -8 -24 3 -36 26 -25 63 8 51 45 -7 19 -41 14 -54
-9z"/>
<path d="M6807 964 c-13 -13 -7 -55 8 -60 21 -9 47 15 43 40 -3 21 -37 34 -51
20z"/>
<path d="M6947 954 c-13 -13 -7 -55 8 -60 21 -9 47 15 43 40 -3 21 -37 34 -51
20z"/>
<path d="M7128 925 c-14 -32 0 -50 32 -40 16 5 20 13 18 33 -4 37 -34 41 -50
7z"/>
<path d="M9602 938 c-17 -17 -15 -47 3 -54 21 -9 47 15 43 40 -4 24 -28 32
-46 14z"/>
<path d="M4451 922 c-11 -21 3 -52 24 -52 8 0 20 10 26 22 10 18 8 24 -7 35
-24 17 -31 16 -43 -5z"/>
<path d="M4640 925 c-14 -17 -4 -55 15 -55 16 0 35 30 35 54 0 20 -34 21 -50
1z"/>
<path d="M4142 888 c-16 -16 -15 -43 2 -57 11 -9 18 -8 30 4 9 9 16 22 16 29
0 12 -19 36 -30 36 -3 0 -11 -5 -18 -12z"/>
<path d="M4357 884 c-13 -13 -7 -55 8 -60 21 -9 47 15 43 40 -3 21 -37 34 -51
20z"/>
<path d="M6862 878 c-16 -16 -15 -33 2 -47 26 -22 60 11 49 47 -6 15 -35 16
-51 0z"/>
<path d="M7021 861 c-13 -24 8 -55 31 -46 19 8 33 40 23 55 -10 17 -44 11 -54
-9z"/>
<path d="M9734 866 c-8 -20 -1 -49 12 -53 17 -6 46 26 42 46 -4 21 -46 27 -54
7z"/>
<path d="M9479 849 c-8 -17 -8 -24 3 -36 26 -25 65 7 52 42 -9 22 -42 18 -55
-6z"/>
<path d="M4715 844 c-9 -9 -14 -23 -11 -31 3 -8 6 -17 6 -19 0 -2 9 -4 20 -4
26 0 46 36 29 56 -15 18 -24 18 -44 -2z"/>
<path d="M4215 829 c-10 -30 18 -57 39 -39 9 7 16 23 16 36 0 32 -45 34 -55 3z"/>
<path d="M9622 838 c-17 -17 -15 -47 3 -54 21 -9 47 15 43 40 -4 24 -28 32
-46 14z"/>
<path d="M4475 824 c-20 -21 -16 -48 9 -52 27 -6 48 25 35 49 -12 23 -23 24
-44 3z"/>
<path d="M9372 828 c-17 -17 -15 -45 5 -52 24 -10 51 20 37 41 -14 22 -27 26
-42 11z"/>
<path d="M4587 809 c-18 -25 -12 -49 13 -49 26 0 46 28 34 48 -16 25 -31 25
-47 1z"/>
<path d="M9801 786 c-20 -24 -9 -51 19 -51 21 0 25 5 25 30 0 34 -24 45 -44
21z"/>
<path d="M4270 760 c-16 -29 -5 -52 22 -48 18 2 23 9 23 33 0 37 -28 46 -45
15z"/>
<path d="M4375 754 c-9 -9 -14 -23 -11 -31 3 -8 6 -17 6 -19 0 -2 9 -4 20 -4
26 0 46 36 29 56 -15 18 -24 18 -44 -2z"/>
<path d="M9527 763 c-14 -13 -7 -43 13 -53 15 -8 21 -6 30 9 5 11 7 27 4 35
-6 16 -35 22 -47 9z"/>
<path d="M4672 728 c-19 -19 -15 -58 7 -58 27 0 47 28 35 48 -14 21 -27 25
-42 10z"/>
<path d="M4162 718 c-16 -16 -15 -33 3 -48 20 -17 45 3 45 36 0 26 -27 33 -48
12z"/>
<path d="M9685 709 c-10 -30 18 -57 39 -39 9 7 16 23 16 36 0 32 -45 34 -55 3z"/>
<path d="M4490 701 c-13 -25 -3 -51 21 -51 24 0 40 30 28 53 -13 23 -36 22
-49 -2z"/>
<path d="M9395 689 c-10 -30 18 -57 39 -39 9 7 16 23 16 36 0 32 -45 34 -55 3z"/>
<path d="M9788 679 c-22 -12 -24 -55 -3 -63 9 -3 21 4 32 20 14 22 14 27 2 39
-10 10 -19 11 -31 4z"/>
<path d="M9585 659 c-5 -14 -1 -27 10 -38 15 -15 18 -14 36 9 20 23 20 25 3
37 -26 19 -42 16 -49 -8z"/>
<path d="M4252 658 c-19 -19 -15 -58 7 -58 27 0 47 28 35 48 -14 21 -27 25
-42 10z"/>
<path d="M4390 645 c-19 -23 -8 -50 20 -50 19 0 26 6 28 24 5 35 -26 53 -48
26z"/>
<path d="M4566 613 c-11 -40 25 -56 47 -21 14 21 2 48 -22 48 -12 0 -21 -9
-25 -27z"/>
<path d="M9283 633 c-7 -2 -13 -18 -13 -34 0 -22 5 -29 19 -29 27 0 47 28 35
48 -12 18 -24 23 -41 15z"/>
<path d="M9494 616 c-8 -20 -1 -49 12 -53 17 -6 46 26 42 46 -4 21 -46 27 -54
7z"/>
<path d="M9360 585 c-17 -21 -8 -50 17 -53 26 -4 41 31 23 53 -16 19 -24 19
-40 0z"/>
<path d="M9851 586 c-20 -24 -9 -51 19 -51 21 0 25 5 25 30 0 34 -24 45 -44
21z"/>
<path d="M4306 574 c-24 -23 -16 -49 14 -49 21 0 25 5 25 29 0 35 -16 43 -39
20z"/>
<path d="M4466 564 c-10 -9 -15 -23 -12 -31 3 -8 6 -17 6 -19 0 -2 8 -4 19 -4
27 0 47 28 35 48 -15 23 -29 25 -48 6z"/>
<path d="M9611 566 c-20 -24 -9 -51 19 -51 21 0 25 5 25 30 0 34 -24 45 -44
21z"/>
<path d="M9721 556 c-20 -24 -9 -51 19 -51 21 0 25 5 25 30 0 34 -24 45 -44
21z"/>
<path d="M9412 508 c-17 -17 -15 -47 3 -54 21 -9 47 15 43 40 -4 24 -28 32
-46 14z"/>
<path d="M9511 496 c-20 -24 -9 -51 19 -51 21 0 25 5 25 30 0 34 -24 45 -44
21z"/>
<path d="M9307 468 c-20 -10 -22 -39 -5 -56 17 -17 48 4 48 32 0 28 -19 38
-43 24z"/>
<path d="M9800 461 c-13 -25 -3 -51 21 -51 24 0 40 30 28 53 -13 23 -36 22
-49 -2z"/>
<path d="M9632 448 c-17 -17 -15 -47 3 -54 21 -9 47 15 43 40 -4 24 -28 32
-46 14z"/>
<path d="M9380 391 c-13 -25 -3 -51 21 -51 25 0 44 37 28 56 -16 20 -36 18
-49 -5z"/>
<path d="M9533 393 c-7 -2 -13 -18 -13 -34 0 -22 5 -29 19 -29 26 0 44 25 36
50 -6 20 -18 23 -42 13z"/>
<path d="M9710 371 c-22 -43 4 -76 35 -45 18 19 19 36 3 52 -17 17 -26 15 -38
-7z"/>
<path d="M9441 316 c-20 -24 -9 -51 19 -51 21 0 25 5 25 30 0 34 -24 45 -44
21z"/>
<path d="M9600 300 c-16 -29 -5 -52 22 -48 18 2 23 9 23 33 0 37 -28 46 -45
15z"/>
</g>
</svg>
