<svg xmlns="http://www.w3.org/2000/svg" viewBox="0 0 96 120" x="0px" y="0px"><title>weather 47</title><g data-name="Layer 48"><path d="M45,59.37l3.65,1.9a2.87,2.87,0,0,0,4.18-2.83l-.21-2.06a1,1,0,0,0-1.3-.85l-6.17,2a1,1,0,0,0-.69.87A1,1,0,0,0,45,59.37Zm5.76-1.55.08.82a.86.86,0,0,1-.38.81.88.88,0,0,1-.89,0l-1.53-.8ZM48.86,15a1,1,0,0,1,1.23-.7,1,1,0,0,1-.26,2,1.15,1.15,0,0,1-.26,0A1,1,0,0,1,48.86,15ZM45,14a1,1,0,0,1,1.23-.7,1,1,0,0,1,.7,1.23,1,1,0,0,1-1,.74l-.26,0A1,1,0,0,1,45,14Zm-3.86-1a1,1,0,0,1,1.23-.71,1,1,0,0,1-.26,2,.78.78,0,0,1-.26,0A1,1,0,0,1,41.14,12.94ZM93.69,26l-9.76-2.65V20.75l9.76-2.65a1,1,0,1,0-.52-1.93l-7.08,1.92a2.17,2.17,0,0,0,.67-.85,2.14,2.14,0,0,0-.46-2.33L77.89,6.42a4,4,0,0,0-5.75,0l-8.41,8.49a2.14,2.14,0,0,0-.46,2.33,2.17,2.17,0,0,0,.67.85L54.8,15.61a1,1,0,0,0-.52,1.93L66.1,20.75v2.57L54.28,26.53a1,1,0,0,0,.26,2,1.15,1.15,0,0,0,.26,0l9.46-2.57a3,3,0,0,0,1.86,5.34h2.21l-3.7,37.5H59a3.2,3.2,0,0,0-3.2,3.2v1.12l-.8.06L38.09,74.77a3.36,3.36,0,0,1-3.29-3.14s-.11-2.21,1.22-3.19l1.36-.83a8.26,8.26,0,0,1,.86,2.58,1.8,1.8,0,0,0,1.1,1.4,1.76,1.76,0,0,0,1.73-.2L42.94,70l5.57,2.29a.84.84,0,0,0,.38.08,1,1,0,0,0,.56-.17,1,1,0,0,0,.44-.84A10.58,10.58,0,0,0,39.37,61H29.82a9.86,9.86,0,0,0-1.44.1,10.7,10.7,0,0,0-9.12,10.71V74l-4.57-.59a25.17,25.17,0,0,0-10.94,1l-1.49.48a1,1,0,0,0-.69,1V89.28a1,1,0,0,0,1.3,1l1.72-.54a23.22,23.22,0,0,1,9.87-.85l8,1a55.62,55.62,0,0,0,7,.44,59.82,59.82,0,0,0,7.26-.45h0l18.84-1.4a41.17,41.17,0,0,1,7.21.14l14.38,1.76a57,57,0,0,0,6.92.42,58.23,58.23,0,0,0,7.34-.47l2-.26a1,1,0,0,0,.87-1V71.93a3.21,3.21,0,0,0-3.21-3.2H85.4l-3.7-37.5h2.21a3,3,0,0,0,1.87-5.34l7.39,2a1.27,1.27,0,0,0,.26,0,1,1,0,0,0,.26-2ZM68.1,25.23V18.56H81.93v6.67Zm15.83-6.55v-.12h.44ZM65.15,16.32l8.41-8.49A2,2,0,0,1,75,7.22a2,2,0,0,1,1.45.61l8.41,8.49a.12.12,0,0,1,0,.15.12.12,0,0,1-.13.09H65.25a.13.13,0,0,1-.13-.09A.12.12,0,0,1,65.15,16.32Zm.51,2.24h.44v.12ZM36.08,65.86A7.09,7.09,0,0,0,34.64,67h0a6.54,6.54,0,0,0-1.84,4.54v.12a5.41,5.41,0,0,0,5.28,5.14L55.17,75.1a41.31,41.31,0,0,1,7.95.08l13.93,1.71a57.18,57.18,0,0,0,14.2-.06l1-.14v2l-1.11.15a54,54,0,0,1-14.08.1l-13.8-1.68a33.76,33.76,0,0,0-5-.23l-10.87.88-9.16.91a7.39,7.39,0,0,1-7.48-7.15s0-.36,0-.5a8.47,8.47,0,0,1,3.76-6.68,8.59,8.59,0,0,1,1.58,1.37Zm11.65,4L43.18,68a.84.84,0,0,0-.38-.08,1,1,0,0,0-.59.19l-2.05,1.49a10.41,10.41,0,0,0-3.57-6.13A9.57,9.57,0,0,1,39.34,63,8.6,8.6,0,0,1,47.73,69.85ZM21.26,71.79a8.69,8.69,0,0,1,7.38-8.73h.15a9,9,0,0,0-3.9,5,1,1,0,0,0,.73,1.2,1,1,0,0,0,1.21-.72,7,7,0,0,1,5.28-4.67A10.44,10.44,0,0,0,28.81,71c0,.16,0,.62,0,.62a9.1,9.1,0,0,0,3.64,7.14h0a6.27,6.27,0,0,1-5.65-3.51,1,1,0,0,0-1.34-.45A1,1,0,0,0,25,76.16a8.25,8.25,0,0,0,7.44,4.62h5.85l9.34-.92L58.41,79a30.92,30.92,0,0,1,4.66.22l13.79,1.68a56.64,56.64,0,0,0,14.6-.1l.84-.12v3.41l-1,.14a54.69,54.69,0,0,1-14.12.1L63.1,82.59A35.32,35.32,0,0,0,59,82.34c-.84,0-1.69,0-2.52.1L32.18,84.2C26.05,84.2,21.26,81,21.26,77ZM3.57,80.37l.75-.24a23.18,23.18,0,0,1,10.1-.86l4.84.66v2.55a5.1,5.1,0,0,0,.07.87l-4.62-.64a25.36,25.36,0,0,0-10.88.91l-.26.08Zm.79-4.1a23.22,23.22,0,0,1,10.07-.93l4.83.63v1.94l-4.57-.62a25.3,25.3,0,0,0-11,.93l-.15,0V76.52ZM4,87.79l-.42.13V85.79l.85-.26a23.12,23.12,0,0,1,10-.83l5.58.76a6.29,6.29,0,0,0,1.86,2.15l.44.24-7.6-1A25.16,25.16,0,0,0,4,87.79Zm87.16.53a54.63,54.63,0,0,1-13.76.05L63,86.61a43.79,43.79,0,0,0-7.61-.14l-19,1.42h-.06l-4.2.31a21.17,21.17,0,0,1-5-.6A17,17,0,0,1,23,86a4.36,4.36,0,0,1-1.75-3.48v-.54c2.27,2.57,6.28,4.25,11,4.25h0L56.6,84.43a32.74,32.74,0,0,1,6.26.15L77,86.31a56.75,56.75,0,0,0,14.63-.11l.72-.1v2.08ZM92.3,71.93v2.75l-1.3.16a55.17,55.17,0,0,1-13.71.06L63.36,73.19A42.6,42.6,0,0,0,57.78,73v-1a1.2,1.2,0,0,1,1.2-1.2H91.09A1.2,1.2,0,0,1,92.3,71.93Zm-8.91-3.2H66.64l3.7-37.5h9.35Zm.52-39.5H66.12a1,1,0,0,1,0-2H83.91a1,1,0,0,1,0,2Zm-33-.74a1,1,0,0,1-.7,1.23,1.24,1.24,0,0,1-.27,0,1,1,0,0,1-1-.74,1,1,0,1,1,1.93-.52ZM47,29.54a1,1,0,0,1-.7,1.22.84.84,0,0,1-.27,0,1,1,0,0,1-1-.74,1,1,0,0,1,.7-1.23A1,1,0,0,1,47,29.54Zm-3.86,1a1,1,0,0,1-.7,1.23.84.84,0,0,1-.27,0,1,1,0,0,1-1-.74,1,1,0,0,1,1.93-.53ZM24.35,72a1,1,0,1,1,1,1A1,1,0,0,1,24.35,72Z"/></g></svg>